<svg width="18" height="18" viewBox="0 0 18 18" fill="none" xmlns="http://www.w3.org/2000/svg">
  <path
    d="M3.71333 11.2455L3.53961 10.6994H2.06057L1.88686 11.2574C1.81903 11.4751 1.76112 11.6225 1.71314 11.6997C1.66517 11.7749 1.58658 11.8125 1.47739 11.8125C1.38474 11.8125 1.30285 11.7719 1.23171 11.6908C1.16057 11.6097 1.125 11.5176 1.125 11.4147C1.125 11.3554 1.13327 11.294 1.14982 11.2307C1.16636 11.1674 1.19366 11.0793 1.23171 10.9665L2.16232 8.14067C2.18879 8.05953 2.22022 7.96257 2.25662 7.84977C2.29467 7.73499 2.33438 7.64001 2.37574 7.56481C2.41875 7.48961 2.47417 7.42925 2.542 7.38374C2.61149 7.33625 2.69669 7.3125 2.79761 7.3125C2.90018 7.3125 2.98539 7.33625 3.05322 7.38374C3.1227 7.42925 3.17813 7.48862 3.21949 7.56184C3.2625 7.63506 3.29807 7.71422 3.3262 7.79931C3.35597 7.88242 3.3932 7.99423 3.43787 8.13473L4.38833 10.9428C4.46278 11.1565 4.5 11.3118 4.5 11.4088C4.5 11.5097 4.46443 11.6027 4.39329 11.6878C4.32381 11.7709 4.23943 11.8125 4.14017 11.8125C4.08226 11.8125 4.03263 11.7996 3.99127 11.7739C3.94991 11.7502 3.91517 11.7175 3.88704 11.676C3.85892 11.6324 3.82831 11.5671 3.79522 11.48C3.76379 11.391 3.73649 11.3128 3.71333 11.2455ZM2.25414 10.0374H3.34108L2.79265 8.24159L2.25414 10.0374Z"
    fill="currentColor"/>
  <path
    d="M16.875 10.364C16.875 10.5025 16.8449 10.6529 16.7846 10.8151C16.7261 10.9754 16.6331 11.1337 16.5057 11.2901C16.3783 11.4444 16.2157 11.5701 16.0177 11.6671C15.8197 11.764 15.589 11.8125 15.3257 11.8125C15.126 11.8125 14.9443 11.7907 14.7808 11.7472C14.6173 11.7037 14.4683 11.6364 14.3341 11.5453C14.2015 11.4523 14.0793 11.3306 13.9674 11.1802C13.8675 11.0437 13.7823 10.8913 13.7117 10.7231C13.6412 10.5529 13.5878 10.3719 13.5516 10.1799C13.5172 9.98796 13.5 9.78414 13.5 9.56844C13.5 9.21817 13.5439 8.90452 13.6317 8.62747C13.7212 8.35043 13.8486 8.11395 14.0139 7.91804C14.1791 7.72015 14.3728 7.56976 14.5949 7.46685C14.8169 7.36395 15.0537 7.3125 15.305 7.3125C15.6114 7.3125 15.8843 7.38275 16.1236 7.52325C16.3629 7.66375 16.5462 7.8379 16.6736 8.04568C16.801 8.25148 16.8647 8.44641 16.8647 8.63044C16.8647 8.73137 16.8337 8.82042 16.7717 8.89759C16.7097 8.97477 16.6349 9.01336 16.5471 9.01336C16.4489 9.01336 16.3749 8.98664 16.325 8.93321C16.2768 8.87978 16.2226 8.78776 16.1623 8.65716C16.0625 8.44146 15.9445 8.28018 15.8085 8.17332C15.6743 8.06646 15.5081 8.01303 15.3102 8.01303C14.9951 8.01303 14.7438 8.15056 14.5561 8.42563C14.3702 8.70069 14.2773 9.09152 14.2773 9.59812C14.2773 9.93651 14.3186 10.2185 14.4012 10.4441C14.4838 10.6677 14.6009 10.8349 14.7524 10.9457C14.9039 11.0566 15.0812 11.112 15.2843 11.112C15.5047 11.112 15.6906 11.0496 15.8421 10.925C15.9953 10.7983 16.1107 10.6133 16.1881 10.3699C16.2208 10.2551 16.2613 10.1621 16.3095 10.0909C16.3577 10.0176 16.4352 9.98104 16.5419 9.98104C16.6331 9.98104 16.7115 10.0176 16.7769 10.0909C16.8423 10.1641 16.875 10.2551 16.875 10.364Z"
    fill="currentColor"/>
  <path
    d="M9.0702 11.8125H7.41502C7.17611 11.8125 7.00493 11.7575 6.90148 11.6475C6.80049 11.535 6.75 11.3572 6.75 11.1142V6.88583C6.75 6.6377 6.80172 6.45992 6.90517 6.35249C7.01108 6.2425 7.18103 6.1875 7.41502 6.1875H9.16995C9.42857 6.1875 9.65271 6.20413 9.84236 6.23738C10.032 6.27063 10.202 6.33458 10.3522 6.42923C10.4803 6.50853 10.5936 6.60957 10.6921 6.73235C10.7906 6.85258 10.8658 6.98687 10.9175 7.13523C10.9692 7.28104 10.9951 7.43579 10.9951 7.59951C10.9951 8.16226 10.7241 8.5741 10.1823 8.83501C10.8941 9.07034 11.25 9.52822 11.25 10.2086C11.25 10.5233 11.1724 10.8072 11.0172 11.0605C10.8621 11.3111 10.6527 11.4966 10.3892 11.6168C10.2241 11.6884 10.0345 11.7396 9.8202 11.7703C9.60591 11.7984 9.35591 11.8125 9.0702 11.8125ZM8.98892 9.31463H7.84729V10.9569H9.02586C9.76724 10.9569 10.1379 10.6793 10.1379 10.1242C10.1379 9.8403 10.0419 9.63438 9.84975 9.50648C9.65764 9.37858 9.37069 9.31463 8.98892 9.31463ZM7.84729 7.04314V8.49736H8.85222C9.12562 8.49736 9.33621 8.4705 9.48399 8.41678C9.63424 8.36306 9.74877 8.26074 9.82759 8.10982C9.88916 8.00239 9.91995 7.88216 9.91995 7.74915C9.91995 7.46521 9.82266 7.2772 9.62808 7.18511C9.4335 7.09047 9.1367 7.04314 8.73768 7.04314H7.84729Z"
    fill="currentColor"/>
  <path
    d="M5.5 5.11111C5.5 4.81643 5.58194 4.53381 5.72781 4.32544C5.87367 4.11706 6.0715 4 6.27778 4H11.7222C11.9285 4 12.1263 4.11706 12.2722 4.32544C12.4181 4.53381 12.5 4.81643 12.5 5.11111V12.8889C12.5 13.1836 12.4181 13.4662 12.2722 13.6746C12.1263 13.8829 11.9285 14 11.7222 14H6.27778C6.0715 14 5.87367 13.8829 5.72781 13.6746C5.58194 13.4662 5.5 13.1836 5.5 12.8889V5.11111Z"
    stroke="currentColor" stroke-linecap="round" stroke-linejoin="round"/>
</svg>
