<svg width="18" height="18" viewBox="0 0 18 18" fill="none" xmlns="http://www.w3.org/2000/svg">
  <path
    d="M5.625 5.0625C5.625 4.76413 5.7567 4.47798 5.99112 4.267C6.22554 4.05603 6.54348 3.9375 6.875 3.9375H15.625C15.9565 3.9375 16.2745 4.05603 16.5089 4.267C16.7433 4.47798 16.875 4.76413 16.875 5.0625V12.9375C16.875 13.2359 16.7433 13.522 16.5089 13.733C16.2745 13.944 15.9565 14.0625 15.625 14.0625H6.875C6.54348 14.0625 6.22554 13.944 5.99112 13.733C5.7567 13.522 5.625 13.2359 5.625 12.9375V5.0625Z"
    stroke="currentColor" stroke-linecap="round" stroke-linejoin="round"/>
  <path
    d="M3.71333 11.2455L3.53961 10.6994H2.06057L1.88686 11.2574C1.81903 11.4751 1.76112 11.6225 1.71314 11.6997C1.66517 11.7749 1.58658 11.8125 1.47739 11.8125C1.38474 11.8125 1.30285 11.7719 1.23171 11.6908C1.16057 11.6097 1.125 11.5176 1.125 11.4147C1.125 11.3554 1.13327 11.294 1.14982 11.2307C1.16636 11.1674 1.19366 11.0793 1.23171 10.9665L2.16232 8.14067C2.18879 8.05953 2.22022 7.96257 2.25662 7.84977C2.29467 7.73499 2.33438 7.64001 2.37574 7.56481C2.41875 7.48961 2.47417 7.42925 2.542 7.38374C2.61149 7.33625 2.69669 7.3125 2.79761 7.3125C2.90018 7.3125 2.98539 7.33625 3.05322 7.38374C3.1227 7.42925 3.17813 7.48862 3.21949 7.56184C3.2625 7.63506 3.29807 7.71422 3.3262 7.79931C3.35597 7.88242 3.3932 7.99423 3.43787 8.13473L4.38833 10.9428C4.46278 11.1565 4.5 11.3118 4.5 11.4088C4.5 11.5097 4.46443 11.6027 4.39329 11.6878C4.32381 11.7709 4.23943 11.8125 4.14017 11.8125C4.08226 11.8125 4.03263 11.7996 3.99127 11.7739C3.94991 11.7502 3.91517 11.7175 3.88704 11.676C3.85892 11.6324 3.82831 11.5671 3.79522 11.48C3.76379 11.391 3.73649 11.3128 3.71333 11.2455ZM2.25414 10.0374H3.34108L2.79265 8.24159L2.25414 10.0374Z"
    fill="currentColor"/>
  <path
    d="M15.4688 10.0018C15.4688 10.175 15.4311 10.363 15.3558 10.5658C15.2826 10.7662 15.1664 10.9641 15.0072 11.1595C14.8479 11.3524 14.6446 11.5095 14.3971 11.6307C14.1497 11.7519 13.8613 11.8125 13.5321 11.8125C13.2824 11.8125 13.0554 11.7853 12.851 11.7309C12.6466 11.6765 12.4604 11.5923 12.2926 11.4786C12.1269 11.3623 11.9741 11.2102 11.8342 11.0222C11.7094 10.8515 11.6029 10.661 11.5147 10.4508C11.4265 10.238 11.3597 10.0117 11.3146 9.77177C11.2715 9.53183 11.25 9.27705 11.25 9.00742C11.25 8.56959 11.3049 8.17752 11.4146 7.83122C11.5265 7.48491 11.6858 7.18931 11.8923 6.94443C12.0989 6.69706 12.341 6.50907 12.6186 6.38044C12.8962 6.25181 13.1921 6.1875 13.5062 6.1875C13.8893 6.1875 14.2303 6.27531 14.5295 6.45094C14.8286 6.62657 15.0577 6.84424 15.217 7.10397C15.3762 7.36123 15.4558 7.60488 15.4558 7.83493C15.4558 7.96108 15.4171 8.07239 15.3396 8.16887C15.2622 8.26534 15.1686 8.31357 15.0588 8.31357C14.9362 8.31357 14.8436 8.28018 14.7812 8.21339C14.721 8.1466 14.6532 8.03158 14.5779 7.86832C14.4531 7.5987 14.3057 7.3971 14.1357 7.26352C13.9678 7.12995 13.7602 7.06316 13.5127 7.06316C13.1189 7.06316 12.8047 7.23508 12.5702 7.57891C12.3378 7.92274 12.2216 8.41128 12.2216 9.04453C12.2216 9.46751 12.2732 9.82 12.3765 10.102C12.4798 10.3815 12.6261 10.5905 12.8155 10.7291C13.0049 10.8676 13.2265 10.9368 13.4804 10.9368C13.7559 10.9368 13.9883 10.8589 14.1776 10.7031C14.3691 10.5448 14.5133 10.3135 14.6102 10.0092C14.651 9.86577 14.7016 9.74951 14.7619 9.66046C14.8221 9.56893 14.9189 9.52317 15.0524 9.52317C15.1664 9.52317 15.2643 9.56893 15.3461 9.66046C15.4279 9.75198 15.4688 9.86577 15.4688 10.0018Z"
    fill="currentColor"/>
  <path
    d="M8.92518 11.8125H7.37346C7.14948 11.8125 6.98899 11.7575 6.89201 11.6475C6.79734 11.535 6.75 11.3572 6.75 11.1142V6.88583C6.75 6.6377 6.79849 6.45992 6.89547 6.35249C6.99477 6.2425 7.15409 6.1875 7.37346 6.1875H9.0187C9.26116 6.1875 9.47129 6.20413 9.64909 6.23738C9.82689 6.27063 9.98622 6.33458 10.1271 6.42923C10.2472 6.50853 10.3534 6.60957 10.4457 6.73235C10.5381 6.85258 10.6085 6.98687 10.657 7.13523C10.7055 7.28104 10.7298 7.43579 10.7298 7.59951C10.7298 8.16226 10.4758 8.5741 9.96775 8.83501C10.6351 9.07034 10.9688 9.52822 10.9688 10.2086C10.9688 10.5233 10.896 10.8072 10.7505 11.0605C10.6051 11.3111 10.4088 11.4966 10.1617 11.6168C10.007 11.6884 9.8292 11.7396 9.62831 11.7703C9.42742 11.7984 9.19304 11.8125 8.92518 11.8125ZM8.84898 9.31463H7.77871V10.9569H8.88362C9.57866 10.9569 9.92619 10.6793 9.92619 10.1242C9.92619 9.8403 9.83613 9.63438 9.65602 9.50648C9.47591 9.37858 9.2069 9.31463 8.84898 9.31463ZM7.77871 7.04314V8.49736H8.72083C8.97714 8.49736 9.17457 8.4705 9.31312 8.41678C9.45397 8.36306 9.56135 8.26074 9.63524 8.10982C9.69297 8.00239 9.72183 7.88216 9.72183 7.74915C9.72183 7.46521 9.63062 7.2772 9.4482 7.18511C9.26578 7.09047 8.98753 7.04314 8.61345 7.04314H7.77871Z"
    fill="currentColor"/>
</svg>
