<svg width="18" height="18" viewBox="0 0 18 18" fill="none" xmlns="http://www.w3.org/2000/svg">
  <path
    d="M5.1386 11.1038L4.90699 10.4211H2.93493L2.70331 11.1187C2.61287 11.3907 2.53566 11.575 2.47169 11.6715C2.40772 11.7655 2.30294 11.8125 2.15735 11.8125C2.03382 11.8125 1.92463 11.7618 1.82978 11.6604C1.73493 11.559 1.6875 11.4439 1.6875 11.3153C1.6875 11.2411 1.69853 11.1644 1.72059 11.0853C1.74265 11.0061 1.77904 10.896 1.82978 10.755L3.07059 7.22271C3.10588 7.12129 3.14779 7.00008 3.19632 6.85909C3.24706 6.71562 3.3 6.59688 3.35515 6.50289C3.4125 6.40889 3.4864 6.33344 3.57684 6.27655C3.66949 6.21718 3.78309 6.1875 3.91765 6.1875C4.05441 6.1875 4.16801 6.21718 4.25846 6.27655C4.3511 6.33344 4.425 6.40765 4.48015 6.49918C4.5375 6.5907 4.58493 6.68964 4.62243 6.79601C4.66213 6.8999 4.71176 7.03966 4.77132 7.21529L6.0386 10.7253C6.13787 10.9925 6.1875 11.1867 6.1875 11.3079C6.1875 11.434 6.14007 11.5503 6.04522 11.6567C5.95257 11.7606 5.84007 11.8125 5.70772 11.8125C5.63051 11.8125 5.56434 11.7964 5.50919 11.7643C5.45404 11.7346 5.40772 11.6938 5.37022 11.6418C5.33272 11.5874 5.29191 11.5058 5.24779 11.3969C5.20588 11.2856 5.16949 11.1879 5.1386 11.1038ZM3.19301 9.59367H4.64228L3.91103 7.34886L3.19301 9.59367Z"
    fill="currentColor"/>
  <path
    d="M16.3125 10.0018C16.3125 10.175 16.2723 10.363 16.192 10.5658C16.114 10.7662 15.99 10.9641 15.8202 11.1595C15.6503 11.3524 15.4334 11.5095 15.1694 11.6307C14.9055 11.7519 14.5979 11.8125 14.2467 11.8125C13.9804 11.8125 13.7383 11.7853 13.5202 11.7309C13.3022 11.6765 13.1036 11.5923 12.9246 11.4786C12.7478 11.3623 12.5849 11.2102 12.4357 11.0222C12.3026 10.8515 12.1889 10.661 12.0948 10.4508C12.0007 10.238 11.9296 10.0117 11.8814 9.77177C11.8355 9.53183 11.8125 9.27705 11.8125 9.00742C11.8125 8.56959 11.871 8.17752 11.9881 7.83122C12.1075 7.48491 12.2773 7.18931 12.4977 6.94443C12.718 6.69706 12.9762 6.50907 13.2723 6.38044C13.5684 6.25181 13.884 6.1875 14.2192 6.1875C14.6277 6.1875 14.9915 6.27531 15.3106 6.45094C15.6296 6.62657 15.8741 6.84424 16.0439 7.10397C16.2138 7.36123 16.2987 7.60488 16.2987 7.83493C16.2987 7.96108 16.2574 8.07239 16.1748 8.16887C16.0921 8.26534 15.9923 8.31357 15.8752 8.31357C15.7444 8.31357 15.6457 8.28018 15.5791 8.21339C15.5149 8.1466 15.4426 8.03158 15.3622 7.86832C15.2291 7.5987 15.0719 7.3971 14.8905 7.26352C14.7115 7.12995 14.49 7.06316 14.226 7.06316C13.806 7.06316 13.4709 7.23508 13.2207 7.57891C12.9728 7.92274 12.8488 8.41128 12.8488 9.04453C12.8488 9.46751 12.9039 9.82 13.0141 10.102C13.1243 10.3815 13.2804 10.5905 13.4824 10.7291C13.6843 10.8676 13.9208 10.9368 14.1916 10.9368C14.4854 10.9368 14.7333 10.8589 14.9353 10.7031C15.1396 10.5448 15.2934 10.3135 15.3967 10.0092C15.4403 9.86577 15.4942 9.74951 15.5585 9.66046C15.6228 9.56893 15.726 9.52317 15.8684 9.52317C15.99 9.52317 16.0944 9.56893 16.1817 9.66046C16.2689 9.75198 16.3125 9.86577 16.3125 10.0018Z"
    fill="currentColor"/>
  <path
    d="M9.0702 11.8125H7.41502C7.17611 11.8125 7.00493 11.7575 6.90148 11.6475C6.80049 11.535 6.75 11.3572 6.75 11.1142V6.88583C6.75 6.6377 6.80172 6.45992 6.90517 6.35249C7.01108 6.2425 7.18103 6.1875 7.41502 6.1875H9.16995C9.42857 6.1875 9.65271 6.20413 9.84236 6.23738C10.032 6.27063 10.202 6.33458 10.3522 6.42923C10.4803 6.50853 10.5936 6.60957 10.6921 6.73235C10.7906 6.85258 10.8658 6.98687 10.9175 7.13523C10.9692 7.28104 10.9951 7.43579 10.9951 7.59951C10.9951 8.16226 10.7241 8.5741 10.1823 8.83501C10.8941 9.07034 11.25 9.52822 11.25 10.2086C11.25 10.5233 11.1724 10.8072 11.0172 11.0605C10.8621 11.3111 10.6527 11.4966 10.3892 11.6168C10.2241 11.6884 10.0345 11.7396 9.8202 11.7703C9.60591 11.7984 9.35591 11.8125 9.0702 11.8125ZM8.98892 9.31463H7.84729V10.9569H9.02586C9.76724 10.9569 10.1379 10.6793 10.1379 10.1242C10.1379 9.8403 10.0419 9.63438 9.84975 9.50648C9.65764 9.37858 9.37069 9.31463 8.98892 9.31463ZM7.84729 7.04314V8.49736H8.85222C9.12562 8.49736 9.33621 8.4705 9.48399 8.41678C9.63424 8.36306 9.74877 8.26074 9.82759 8.10982C9.88916 8.00239 9.91995 7.88216 9.91995 7.74915C9.91995 7.46521 9.82266 7.2772 9.62808 7.18511C9.4335 7.09047 9.1367 7.04314 8.73768 7.04314H7.84729Z"
    fill="currentColor"/>
  <path d="M1.125 9L16.875 9" stroke="currentColor" stroke-linecap="round" stroke-linejoin="round"/>
</svg>
