<svg width="18" height="18" viewBox="0 0 18 18" fill="none" xmlns="http://www.w3.org/2000/svg">
  <path
    d="M5.48541 11.1038L5.26827 10.4211H3.41946L3.20232 11.1187C3.11753 11.3907 3.04515 11.575 2.98518 11.6715C2.92521 11.7655 2.82698 11.8125 2.69049 11.8125C2.57468 11.8125 2.47231 11.7618 2.38339 11.6604C2.29446 11.559 2.25 11.4439 2.25 11.3153C2.25 11.2411 2.26034 11.1644 2.28102 11.0853C2.3017 11.0061 2.33582 10.896 2.38339 10.755L3.54665 7.22271C3.57973 7.12129 3.61903 7.00008 3.66452 6.85909C3.71209 6.71562 3.76172 6.59688 3.81342 6.50289C3.86719 6.40889 3.93647 6.33344 4.02125 6.27655C4.10811 6.21718 4.21461 6.1875 4.34076 6.1875C4.46898 6.1875 4.57548 6.21718 4.66027 6.27655C4.74713 6.33344 4.81641 6.40765 4.86811 6.49918C4.92188 6.5907 4.96634 6.68964 5.00149 6.79601C5.03872 6.8999 5.08525 7.03966 5.14108 7.21529L6.32916 10.7253C6.42222 10.9925 6.46875 11.1867 6.46875 11.3079C6.46875 11.434 6.42429 11.5503 6.33536 11.6567C6.24851 11.7606 6.14304 11.8125 6.01896 11.8125C5.94658 11.8125 5.88454 11.7964 5.83284 11.7643C5.78114 11.7346 5.73771 11.6938 5.70255 11.6418C5.66739 11.5874 5.62914 11.5058 5.58778 11.3969C5.54848 11.2856 5.51436 11.1879 5.48541 11.1038ZM3.66142 9.59367H5.02011L4.33456 7.34886L3.66142 9.59367Z"
    fill="currentColor"/>
  <path
    d="M16.875 10.364C16.875 10.5025 16.8449 10.6529 16.7846 10.8151C16.7261 10.9754 16.6331 11.1337 16.5057 11.2901C16.3783 11.4444 16.2157 11.5701 16.0177 11.6671C15.8197 11.764 15.589 11.8125 15.3257 11.8125C15.126 11.8125 14.9443 11.7907 14.7808 11.7472C14.6173 11.7037 14.4683 11.6364 14.3341 11.5453C14.2015 11.4523 14.0793 11.3306 13.9674 11.1802C13.8675 11.0437 13.7823 10.8913 13.7117 10.7231C13.6412 10.5529 13.5878 10.3719 13.5516 10.1799C13.5172 9.98796 13.5 9.78414 13.5 9.56844C13.5 9.21817 13.5439 8.90452 13.6317 8.62747C13.7212 8.35043 13.8486 8.11395 14.0139 7.91804C14.1791 7.72015 14.3728 7.56976 14.5949 7.46685C14.8169 7.36395 15.0537 7.3125 15.305 7.3125C15.6114 7.3125 15.8843 7.38275 16.1236 7.52325C16.3629 7.66375 16.5462 7.8379 16.6736 8.04568C16.801 8.25148 16.8647 8.44641 16.8647 8.63044C16.8647 8.73137 16.8337 8.82042 16.7717 8.89759C16.7097 8.97477 16.6349 9.01336 16.5471 9.01336C16.4489 9.01336 16.3749 8.98664 16.325 8.93321C16.2768 8.87978 16.2226 8.78776 16.1623 8.65716C16.0625 8.44146 15.9445 8.28018 15.8085 8.17332C15.6743 8.06646 15.5081 8.01303 15.3102 8.01303C14.9951 8.01303 14.7438 8.15056 14.5561 8.42563C14.3702 8.70069 14.2773 9.09152 14.2773 9.59812C14.2773 9.93651 14.3186 10.2185 14.4012 10.4441C14.4838 10.6677 14.6009 10.8349 14.7524 10.9457C14.9039 11.0566 15.0812 11.112 15.2843 11.112C15.5047 11.112 15.6906 11.0496 15.8421 10.925C15.9953 10.7983 16.1107 10.6133 16.1881 10.3699C16.2208 10.2551 16.2613 10.1621 16.3095 10.0909C16.3577 10.0176 16.4352 9.98104 16.5419 9.98104C16.6331 9.98104 16.7115 10.0176 16.7769 10.0909C16.8423 10.1641 16.875 10.2551 16.875 10.364Z"
    fill="currentColor"/>
  <path
    d="M9.20643 11.8125H7.65471C7.43073 11.8125 7.27024 11.7575 7.17326 11.6475C7.07859 11.535 7.03125 11.3572 7.03125 11.1142V6.88583C7.03125 6.6377 7.07974 6.45992 7.17672 6.35249C7.27602 6.2425 7.43534 6.1875 7.65471 6.1875H9.29995C9.54241 6.1875 9.75254 6.20413 9.93034 6.23738C10.1081 6.27063 10.2675 6.33458 10.4083 6.42923C10.5284 6.50853 10.6346 6.60957 10.727 6.73235C10.8194 6.85258 10.8898 6.98687 10.9383 7.13523C10.9868 7.28104 11.011 7.43579 11.011 7.59951C11.011 8.16226 10.757 8.5741 10.249 8.83501C10.9163 9.07034 11.25 9.52822 11.25 10.2086C11.25 10.5233 11.1773 10.8072 11.0318 11.0605C10.8863 11.3111 10.69 11.4966 10.443 11.6168C10.2883 11.6884 10.1105 11.7396 9.90956 11.7703C9.70867 11.7984 9.47429 11.8125 9.20643 11.8125ZM9.13023 9.31463H8.05996V10.9569H9.16487C9.85991 10.9569 10.2074 10.6793 10.2074 10.1242C10.2074 9.8403 10.1174 9.63438 9.93727 9.50648C9.75716 9.37858 9.48815 9.31463 9.13023 9.31463ZM8.05996 7.04314V8.49736H9.00208C9.25839 8.49736 9.45582 8.4705 9.59437 8.41678C9.73522 8.36306 9.8426 8.26074 9.91649 8.10982C9.97422 8.00239 10.0031 7.88216 10.0031 7.74915C10.0031 7.46521 9.91187 7.2772 9.72945 7.18511C9.54703 7.09047 9.26878 7.04314 8.8947 7.04314H8.05996Z"
    fill="currentColor"/>
  <path
    d="M1.125 5.0625C1.125 4.76413 1.2567 4.47798 1.49112 4.267C1.72554 4.05603 2.04348 3.9375 2.375 3.9375H11.125C11.4565 3.9375 11.7745 4.05603 12.0089 4.267C12.2433 4.47798 12.375 4.76413 12.375 5.0625V12.9375C12.375 13.2359 12.2433 13.522 12.0089 13.733C11.7745 13.944 11.4565 14.0625 11.125 14.0625H2.375C2.04348 14.0625 1.72554 13.944 1.49112 13.733C1.2567 13.522 1.125 13.2359 1.125 12.9375V5.0625Z"
    stroke="currentColor" stroke-linecap="round" stroke-linejoin="round"/>
</svg>
