<svg viewBox="0 0 24 24" fill="none"
  xmlns="http://www.w3.org/2000/svg">
  <path d="M21.375 5.25H15L12.4997 3.375C12.1748 3.13231 11.7803 3.00081 11.3747 3H7.125C6.62772 3 6.15081 3.19754 5.79917 3.54917C5.44754 3.90081 5.25 4.37772 5.25 4.875V6.75H3.375C2.87772 6.75 2.40081 6.94754 2.04917 7.29917C1.69754 7.65081 1.5 8.12772 1.5 8.625V19.125C1.5 19.6223 1.69754 20.0992 2.04917 20.4508C2.40081 20.8025 2.87772 21 3.375 21H17.7084C18.1834 20.9995 18.6388 20.8106 18.9747 20.4747C19.3106 20.1388 19.4995 19.6834 19.5 19.2084V17.25H21.4584C21.9334 17.2495 22.3888 17.0606 22.7247 16.7247C23.0606 16.3888 23.2495 15.9334 23.25 15.4584V7.125C23.25 6.62772 23.0525 6.15081 22.7008 5.79917C22.3492 5.44754 21.8723 5.25 21.375 5.25ZM17.25 18.75H3.75V9H7.5L10.2 11.025C10.3947 11.1711 10.6316 11.25 10.875 11.25H17.25V18.75ZM21 15H19.5V10.875C19.5 10.3777 19.3025 9.90081 18.9508 9.54917C18.5992 9.19754 18.1223 9 17.625 9H11.25L8.74969 7.125C8.42475 6.88231 8.03025 6.75081 7.62469 6.75H7.5V5.25H11.25L13.95 7.275C14.1447 7.42105 14.3816 7.5 14.625 7.5H21V15Z" fill="currentColor"/>
</svg>
