<svg viewBox="0 0 24 24" fill="none" xmlns="http://www.w3.org/2000/svg">
  <g clip-path="url(#clip0_4284_13496)">
    <path
      d="M19.5 3.75H15C14.5858 3.75 14.25 4.08579 14.25 4.5V19.5C14.25 19.9142 14.5858 20.25 15 20.25H19.5C19.9142 20.25 20.25 19.9142 20.25 19.5V4.5C20.25 4.08579 19.9142 3.75 19.5 3.75Z"
      stroke="currentColor" stroke-width="1.5" stroke-linecap="round" stroke-linejoin="round"/>
    <path d="M14.25 8.25H17.25" stroke="currentColor" stroke-width="1.5" stroke-linecap="round"
          stroke-linejoin="round"/>
    <path d="M14.25 12H17.25" stroke="currentColor" stroke-width="1.5" stroke-linecap="round" stroke-linejoin="round"/>
    <path d="M14.25 15.75H17.25" stroke="currentColor" stroke-width="1.5" stroke-linecap="round"
          stroke-linejoin="round"/>
    <path
      d="M3.75 6L6.75 3L9.75 6V19.5C9.75 19.6989 9.67098 19.8897 9.53033 20.0303C9.38968 20.171 9.19891 20.25 9 20.25H4.5C4.30109 20.25 4.11032 20.171 3.96967 20.0303C3.82902 19.8897 3.75 19.6989 3.75 19.5V6Z"
      stroke="currentColor" stroke-width="1.5" stroke-linecap="round" stroke-linejoin="round"/>
    <path d="M6.75 6.75V17.25" stroke="currentColor" stroke-width="1.5" stroke-linecap="round" stroke-linejoin="round"/>
    <path d="M9.75 6.75H3.75" stroke="currentColor" stroke-width="1.5" stroke-linecap="round" stroke-linejoin="round"/>
    <path d="M9.75 17.25H3.75" stroke="currentColor" stroke-width="1.5" stroke-linecap="round" stroke-linejoin="round"/>
  </g>
  <defs>
    <clipPath id="clip0_4284_13496">
      <rect width="24" height="24" fill="white"/>
    </clipPath>
  </defs>
</svg>
