<svg viewBox="0 0 24 24" fill="none" xmlns="http://www.w3.org/2000/svg">
  <g clip-path="url(#clip0_7225_13820)">
    <path d="M11.25 15L20.25 6" stroke="currentColor" stroke-width="1.5" stroke-linecap="round"
          stroke-linejoin="round"/>
    <path
      d="M5.29125 14.9999C5.26378 14.7508 5.25001 14.5005 5.25 14.2499C5.25091 13.1787 5.50655 12.123 5.99583 11.17C6.48511 10.2171 7.19399 9.39412 8.06399 8.7691C8.93398 8.14408 9.94014 7.73491 10.9994 7.57535C12.0587 7.4158 13.1407 7.51044 14.1562 7.85147"
      stroke="currentColor" stroke-width="1.5" stroke-linecap="round" stroke-linejoin="round"/>
    <path
      d="M20.6831 9.8099C21.2845 10.9898 21.6401 12.2796 21.7284 13.601C21.8167 14.9224 21.6359 16.2479 21.1969 17.4974C21.1456 17.6447 21.0497 17.7723 20.9225 17.8626C20.7953 17.9528 20.6431 18.0011 20.4872 18.0008H3.51186C3.35562 18.0002 3.20344 17.951 3.07632 17.8602C2.9492 17.7693 2.85341 17.6413 2.80218 17.4937C2.4272 16.4274 2.24036 15.3042 2.24999 14.174C2.29124 8.8124 6.72468 4.45209 12.0937 4.4999C13.607 4.51205 15.0966 4.87737 16.4437 5.56678"
      stroke="currentColor" stroke-width="1.5" stroke-linecap="round" stroke-linejoin="round"/>
  </g>
  <defs>
    <clipPath id="clip0_7225_13820">
      <rect width="24" height="24" fill="white"/>
    </clipPath>
  </defs>
</svg>
