<svg width="18" height="18" viewBox="0 0 18 18" fill="none" xmlns="http://www.w3.org/2000/svg">
<path fill-rule="evenodd" clip-rule="evenodd" d="M15.1812 1.2002H2.80615C2.43319 1.2002 2.07551 1.34835 1.81178 1.61208C1.54806 1.8758 1.3999 2.23348 1.3999 2.60645V5.48145C1.3999 5.85441 1.54806 6.21209 1.81178 6.47581C2.07551 6.73954 2.43319 6.8877 2.80615 6.8877H15.1812C15.5541 6.8877 15.9118 6.73954 16.1755 6.47581C16.4392 6.21209 16.5874 5.85441 16.5874 5.48145V2.60645C16.5874 2.23348 16.4392 1.8758 16.1755 1.61208C15.9118 1.34835 15.5541 1.2002 15.1812 1.2002ZM14.8999 5.2002H3.0874V2.8877H14.8999V5.2002ZM12 7.80017C12.3107 7.80017 12.5625 8.05201 12.5625 8.36267V11.7377H15.9375C16.2482 11.7377 16.5 11.9895 16.5 12.3002C16.5 12.6108 16.2482 12.8627 15.9375 12.8627H12.5625V16.2377C12.5625 16.5483 12.3107 16.8002 12 16.8002C11.6893 16.8002 11.4375 16.5483 11.4375 16.2377V12.8627H8.0625C7.75184 12.8627 7.5 12.6108 7.5 12.3002C7.5 11.9895 7.75184 11.7377 8.0625 11.7377H11.4375V8.36267C11.4375 8.05201 11.6893 7.80017 12 7.80017ZM2.41188 12.5883C2.14816 12.3246 2 11.9669 2 11.5939V9.00018H3.6875V11.3127H6.1001V13.0002H3.40625C3.03329 13.0002 2.6756 12.852 2.41188 12.5883Z" fill="currentColor"/>
</svg>
