<svg width="18" height="18" viewBox="0 0 18 18" fill="none" xmlns="http://www.w3.org/2000/svg">
  <path
    d="M12 2.25C12.1837 2.25002 12.361 2.31747 12.4983 2.43954C12.6356 2.56161 12.7233 2.72981 12.7448 2.91225L12.75 3V3.75H14.25C14.6284 3.74988 14.9929 3.8928 15.2704 4.15012C15.5479 4.40744 15.7179 4.76013 15.7463 5.1375L15.75 5.25V14.25C15.7501 14.6284 15.6072 14.9929 15.3499 15.2704C15.0926 15.5479 14.7399 15.7179 14.3625 15.7463L14.25 15.75H3.75C3.37157 15.7501 3.00708 15.6072 2.72959 15.3499C2.4521 15.0926 2.28213 14.7399 2.25375 14.3625L2.25 14.25V5.25C2.24988 4.87157 2.3928 4.50708 2.65012 4.22959C2.90744 3.9521 3.26013 3.78213 3.6375 3.75375L3.75 3.75H5.25V3C5.25021 2.80884 5.32341 2.62498 5.45464 2.48597C5.58586 2.34697 5.76521 2.26332 5.95605 2.25212C6.14688 2.24092 6.33478 2.30301 6.48137 2.4257C6.62796 2.54839 6.72217 2.72243 6.74475 2.91225L6.75 3V3.75H11.25V3C11.25 2.80109 11.329 2.61032 11.4697 2.46967C11.6103 2.32902 11.8011 2.25 12 2.25ZM14.25 9H3.75V14.25H14.25V9ZM14.25 5.25H3.75V7.5H14.25V5.25Z"
    fill="currentColor"/>
</svg>
