<svg width="18" height="18" viewBox="0 0 18 18" fill="none"
  xmlns="http://www.w3.org/2000/svg">
  <path fill-rule="evenodd" clip-rule="evenodd" d="M5.25 3C5.05109 3 4.86032 3.07902 4.71967 3.21967C4.57902 3.36032 4.5 3.55109 4.5 3.75V14.25C4.5 14.4489 4.57902 14.6397 4.71967 14.7803C4.86032 14.921 5.05109 15 5.25 15H12.75C12.9489 15 13.1397 14.921 13.2803 14.7803C13.421 14.6397 13.5 14.4489 13.5 14.25V6.75H11.25C10.8522 6.75 10.4706 6.59196 10.1893 6.31066C9.90804 6.02936 9.75 5.64783 9.75 5.25V3H5.25ZM11.25 4.06066L12.4393 5.25H11.25V4.06066ZM3.65901 2.15901C4.08097 1.73705 4.65326 1.5 5.25 1.5H10.5C10.6989 1.5 10.8897 1.57902 11.0303 1.71967L14.7803 5.46967C14.921 5.61032 15 5.80109 15 6V14.25C15 14.8467 14.7629 15.419 14.341 15.841C13.919 16.2629 13.3467 16.5 12.75 16.5H5.25C4.65326 16.5 4.08097 16.2629 3.65901 15.841C3.23705 15.419 3 14.8467 3 14.25V3.75C3 3.15326 3.23705 2.58097 3.65901 2.15901ZM6 9.75C6 9.33579 6.33579 9 6.75 9H11.25C11.6642 9 12 9.33579 12 9.75C12 10.1642 11.6642 10.5 11.25 10.5H6.75C6.33579 10.5 6 10.1642 6 9.75ZM6 12.75C6 12.3358 6.33579 12 6.75 12H11.25C11.6642 12 12 12.3358 12 12.75C12 13.1642 11.6642 13.5 11.25 13.5H6.75C6.33579 13.5 6 13.1642 6 12.75Z" fill="currentColor"/>
</svg>
