<svg width="18" height="18" viewBox="0 0 18 18" fill="none"
  xmlns="http://www.w3.org/2000/svg">
  <g clip-path="url(#clip0_7462_2416)">
    <path d="M17.9653 7.96983C17.9306 7.66637 17.8785 7.315 17.7744 6.93168C17.6702 6.54836 17.4966 6.1331 17.271 5.68589C17.028 5.25466 16.7329 4.79148 16.3337 4.36025C16.1774 4.18456 16.0039 4.02485 15.8303 3.84916C16.108 2.84295 15.5005 1.96451 15.5005 1.96451C14.4417 1.90062 13.7821 2.26797 13.5391 2.42768C13.5043 2.41171 13.4523 2.39574 13.4176 2.37977C13.244 2.31588 13.053 2.252 12.8621 2.18811C12.6712 2.1402 12.4802 2.07631 12.2893 2.04437C12.0984 1.99645 11.8901 1.96451 11.6818 1.93256C11.6471 1.93256 11.6123 1.91659 11.5776 1.91659C11.1263 0.574978 9.80714 0 9.80714 0C8.29701 0.89441 8.00193 2.09228 8.00193 2.09228C8.00193 2.09228 8.00193 2.12422 7.98457 2.15617C7.89778 2.17214 7.82835 2.20408 7.74156 2.22005C7.63742 2.252 7.51591 2.28394 7.41176 2.33185C7.30762 2.37977 7.18611 2.41171 7.08197 2.45963C6.85632 2.55546 6.64802 2.65129 6.42237 2.76309C6.21408 2.87489 6.00579 2.98669 5.81485 3.11446C5.78014 3.09849 5.76278 3.08252 5.76278 3.08252C3.73192 2.3638 1.92671 3.22626 1.92671 3.22626C1.77049 5.22272 2.74253 6.4685 2.93346 6.6921C2.88139 6.81988 2.84667 6.93168 2.7946 7.05945C2.63838 7.50666 2.53423 7.96983 2.4648 8.44898C2.44744 8.51287 2.44744 8.59272 2.43009 8.65661C0.555449 9.50311 0 11.26 0 11.26C1.5622 12.921 3.40212 13.0169 3.40212 13.0169C3.62777 13.4002 3.9055 13.7675 4.20058 14.1029C4.32208 14.2467 4.46095 14.3744 4.59981 14.5182C4.027 16.0195 4.6866 17.2813 4.6866 17.2813C6.43973 17.3452 7.58534 16.5785 7.82835 16.4028C8.00193 16.4508 8.17551 16.4987 8.34908 16.5466C8.88717 16.6744 9.44262 16.7542 9.98071 16.7702C10.1196 16.7702 10.2584 16.7702 10.3973 16.7702H10.4667H10.5188H10.6056H10.6924C11.5082 17.8563 12.9662 18 12.9662 18C13.9904 16.9938 14.0598 16.0195 14.0598 15.7959C14.0598 15.7959 14.0598 15.7959 14.0598 15.7799C14.0598 15.764 14.0598 15.748 14.0598 15.748C14.0598 15.732 14.0598 15.7161 14.0598 15.7001C14.2681 15.5563 14.4764 15.4126 14.6847 15.2529C15.1013 14.9175 15.4484 14.5182 15.7608 14.1029C15.7956 14.071 15.8129 14.0231 15.8476 13.9911C17.0106 14.055 17.8264 13.3203 17.8264 13.3203C17.6355 12.2023 16.9412 11.6593 16.8023 11.5634C16.8023 11.5634 16.8023 11.5634 16.785 11.5475L16.7676 11.5315L16.7502 11.5155C16.7502 11.4516 16.7676 11.3878 16.7676 11.3079C16.785 11.1801 16.785 11.0683 16.785 10.9406V10.8447V10.7968V10.7808C16.785 10.7489 16.785 10.7649 16.785 10.7489V10.669V10.5732C16.785 10.5413 16.785 10.5093 16.785 10.4774C16.785 10.4454 16.785 10.4135 16.7676 10.3815L16.7502 10.2857L16.7329 10.1899C16.7155 10.0621 16.6808 9.95031 16.6635 9.82254C16.5419 9.34339 16.3337 8.88021 16.0733 8.48092C15.7956 8.06566 15.4658 7.71429 15.0839 7.39485C14.702 7.09139 14.2854 6.83585 13.8341 6.66016C13.3828 6.4685 12.9315 6.3567 12.4629 6.30878C12.2372 6.27684 11.9942 6.27684 11.7686 6.27684H11.6818H11.6644H11.6297H11.595H11.5082C11.4735 6.27684 11.4388 6.27684 11.4214 6.27684C11.2999 6.29281 11.1784 6.30878 11.0743 6.32476C10.6056 6.40461 10.1716 6.56433 9.78978 6.77196C9.40791 6.97959 9.07811 7.25111 8.80039 7.55457C8.52266 7.85803 8.31437 8.17746 8.17551 8.52884C8.03664 8.86424 7.94986 9.23159 7.9325 9.56699C7.9325 9.64685 7.9325 9.74268 7.9325 9.82254C7.9325 9.83851 7.9325 9.87045 7.9325 9.88643V9.95031C7.9325 9.99823 7.9325 10.0302 7.94985 10.0781C7.96721 10.2538 8.00193 10.4135 8.054 10.5732C8.15815 10.8926 8.31437 11.1801 8.52266 11.4357C8.73096 11.6912 8.95661 11.8829 9.21697 12.0426C9.47734 12.2023 9.73771 12.3141 10.0154 12.394C10.2932 12.4738 10.5535 12.5058 10.7965 12.4898C10.8312 12.4898 10.866 12.4898 10.8833 12.4898C10.9007 12.4898 10.918 12.4898 10.9354 12.4898C10.9527 12.4898 10.9701 12.4898 10.9875 12.4898C11.0222 12.4898 11.0395 12.4898 11.0743 12.4898H11.0916H11.109C11.1263 12.4898 11.1437 12.4898 11.161 12.4898C11.1958 12.4898 11.2305 12.4738 11.2478 12.4738C11.2825 12.4738 11.2999 12.4579 11.3346 12.4579C11.3867 12.4419 11.4561 12.4259 11.5082 12.4099C11.6123 12.378 11.7165 12.3301 11.8206 12.2981C11.9248 12.2502 12.0116 12.2023 12.081 12.1544C12.0984 12.1384 12.1331 12.1224 12.1504 12.1065C12.2372 12.0426 12.2546 11.9308 12.1851 11.8509C12.1157 11.787 12.0116 11.7711 11.9248 11.803C11.9074 11.819 11.8901 11.819 11.8554 11.835C11.7859 11.8669 11.6991 11.8988 11.6297 11.9148C11.5429 11.9308 11.4561 11.9627 11.3693 11.9787C11.3173 11.9787 11.2825 11.9947 11.2305 11.9947C11.2131 11.9947 11.1784 11.9947 11.161 11.9947C11.1437 11.9947 11.109 11.9947 11.0916 11.9947C11.0743 11.9947 11.0395 11.9947 11.0222 11.9947C10.9875 11.9947 10.9701 11.9947 10.9354 11.9947H10.918H10.9007C10.8833 11.9947 10.8833 11.9947 10.866 11.9947C10.8486 11.9947 10.8139 11.9947 10.7965 11.9787C10.6056 11.9468 10.3973 11.8988 10.2064 11.819C10.0154 11.7391 9.82449 11.6273 9.66827 11.4836C9.4947 11.3398 9.35583 11.1801 9.23433 10.9885C9.11283 10.7968 9.0434 10.5892 9.00868 10.3815C8.99132 10.2697 8.97396 10.1579 8.99132 10.0461C8.99132 10.0142 8.99132 9.98225 8.99132 9.95031V9.93434V9.91837C8.99132 9.9024 8.99132 9.88643 8.99132 9.87045C8.99132 9.80657 9.00868 9.75865 9.02604 9.69477C9.11283 9.21562 9.37319 8.75244 9.77242 8.40106C9.87657 8.30523 9.98071 8.22538 10.1022 8.16149C10.2237 8.08163 10.3452 8.01775 10.4667 7.96983C10.5882 7.92192 10.7271 7.874 10.866 7.84206C11.0048 7.81012 11.1437 7.77817 11.2825 7.77817C11.352 7.77817 11.4214 7.7622 11.4908 7.7622C11.5082 7.7622 11.5256 7.7622 11.5429 7.7622H11.595H11.6297H11.6471H11.6991C11.8554 7.77817 12.0116 7.79414 12.1504 7.82609C12.4455 7.88997 12.7406 7.9858 13.0183 8.12955C13.5738 8.41704 14.0424 8.84827 14.3202 9.37533C14.459 9.63088 14.5632 9.91837 14.6152 10.2218C14.6326 10.3017 14.6326 10.3656 14.65 10.4454V10.4933V10.5413C14.65 10.5572 14.65 10.5732 14.65 10.5892C14.65 10.6051 14.65 10.6211 14.65 10.6371V10.685V10.7329C14.65 10.7649 14.65 10.8287 14.65 10.8607C14.65 10.9406 14.6326 11.0204 14.6326 11.1003C14.6152 11.1801 14.6152 11.26 14.5979 11.3398C14.5805 11.4197 14.5632 11.4996 14.5458 11.5794C14.5111 11.7391 14.4417 11.8829 14.3896 12.0426C14.2681 12.3461 14.0945 12.6335 13.8862 12.8891C13.4696 13.4161 12.8968 13.8474 12.2546 14.1189C11.9248 14.2467 11.595 14.3585 11.2478 14.4064C11.0743 14.4383 10.9007 14.4543 10.7271 14.4543H10.6924H10.6577H10.6056H10.5188H10.4667H10.4494C10.3626 14.4543 10.2584 14.4543 10.1716 14.4383C9.78978 14.4064 9.42527 14.3425 9.06075 14.2467C8.69624 14.1508 8.34908 14.0231 8.01929 13.8634C7.35969 13.5439 6.76953 13.0807 6.30087 12.5537C6.07522 12.2822 5.86692 11.9947 5.69335 11.6912C5.51977 11.3878 5.39826 11.0683 5.29412 10.7489C5.18997 10.4295 5.1379 10.0941 5.12054 9.75865V9.69477V9.67879V9.66282V9.63088V9.58296V9.56699V9.55102V9.51908V9.43922V9.42325V9.3913C5.12054 9.34339 5.12054 9.31145 5.12054 9.26353C5.12054 9.10382 5.1379 8.92813 5.17261 8.75244C5.18997 8.57675 5.22469 8.41704 5.2594 8.24135C5.29412 8.06566 5.34619 7.90595 5.39826 7.73026C5.50241 7.39485 5.62392 7.07542 5.78014 6.77196C6.09258 6.16504 6.4918 5.62201 6.96046 5.19077C7.08197 5.07897 7.20347 4.98314 7.34233 4.88731C7.39441 4.8394 7.51591 4.74357 7.65477 4.66371C7.79364 4.58385 7.9325 4.50399 8.08872 4.44011C8.15815 4.40816 8.22758 4.37622 8.31437 4.34428C8.34908 4.32831 8.3838 4.31233 8.43587 4.29636C8.47059 4.28039 8.5053 4.26442 8.55738 4.24845C8.7136 4.18456 8.86982 4.13665 9.02604 4.08873C9.06075 4.07276 9.11283 4.07276 9.14754 4.05679C9.18226 4.04082 9.23433 4.04082 9.26905 4.02485C9.35583 4.00887 9.42527 3.9929 9.51205 3.96096C9.54677 3.94499 9.59884 3.94499 9.63356 3.92902C9.66827 3.92902 9.72035 3.91304 9.75506 3.91304C9.78978 3.91304 9.84185 3.89707 9.87657 3.89707L9.946 3.8811L10.0154 3.86513C10.0501 3.86513 10.1022 3.84916 10.1369 3.84916C10.189 3.84916 10.2237 3.83319 10.2758 3.83319C10.3105 3.83319 10.3799 3.81721 10.4147 3.81721C10.4494 3.81721 10.4667 3.81721 10.5014 3.80124H10.5535H10.5882H10.623C10.675 3.80124 10.7097 3.80124 10.7618 3.78527H10.8312H10.8486H10.8833C10.918 3.78527 10.9701 3.78527 11.0048 3.78527C11.161 3.78527 11.3173 3.78527 11.4735 3.78527C11.7859 3.80124 12.0984 3.83319 12.3934 3.8811C12.9836 3.97693 13.5564 4.15262 14.0598 4.39219C14.5632 4.61579 15.0318 4.90328 15.4137 5.20674C15.4311 5.22272 15.4658 5.23869 15.4831 5.27063C15.5005 5.2866 15.5352 5.30257 15.5526 5.33452C15.6046 5.36646 15.6393 5.41437 15.6914 5.44632C15.7435 5.47826 15.7782 5.52618 15.8303 5.55812C15.865 5.60603 15.9171 5.63798 15.9518 5.68589C16.1254 5.84561 16.2816 6.0213 16.4204 6.18101C16.6982 6.51642 16.9238 6.85182 17.0974 7.17125C17.1148 7.18722 17.1148 7.20319 17.1321 7.23514C17.1495 7.25111 17.1495 7.26708 17.1668 7.29902C17.1842 7.33097 17.2015 7.37888 17.2363 7.41083C17.2536 7.44277 17.271 7.49068 17.2883 7.52263C17.3057 7.55457 17.323 7.60248 17.3404 7.63443C17.4098 7.77817 17.4619 7.92192 17.514 8.06566C17.6008 8.28926 17.6528 8.48092 17.7049 8.64064C17.7223 8.70453 17.7917 8.75244 17.8611 8.75244C17.9479 8.75244 18 8.68855 18 8.6087C17.9826 8.41704 17.9826 8.20941 17.9653 7.96983Z" fill="currentColor"/>
  </g>
  <defs>
    <clipPath id="clip0_7462_2416">
      <rect width="18" height="18" fill="white"/>
    </clipPath>
  </defs>
</svg>
