<svg width="18" height="18" viewBox="0 0 18 18" fill="none" xmlns="http://www.w3.org/2000/svg">
<path fill-rule="evenodd" clip-rule="evenodd" d="M0.744934 5.15066C0.375794 6.32147 0.191223 7.606 0.191223 9.00426C0.191223 10.3988 0.375794 11.6833 0.744934 12.8579C1.1178 14.0287 1.67151 15.1119 2.40607 16.1074H4.31329C3.93297 15.6152 3.58993 14.9814 3.28417 14.2058C2.98215 13.4339 2.74165 12.595 2.56267 11.6889C2.38742 10.7828 2.2998 9.88796 2.2998 9.00426C2.2998 8.34055 2.35014 7.66752 2.45081 6.98517C2.55521 6.30282 2.6969 5.64471 2.87588 5.01083C3.05859 4.37322 3.27299 3.78782 3.51908 3.25462C3.76518 2.71768 4.02991 2.26465 4.31329 1.89551H2.40607C1.67151 2.89107 1.1178 3.97612 0.744934 5.15066ZM17.254 12.8579C17.6269 11.6833 17.8133 10.3988 17.8133 9.00426C17.8133 7.606 17.6269 6.32147 17.254 5.15066C16.8848 3.97612 16.333 2.89107 15.5984 1.89551H13.6912C14.0715 2.3877 14.4127 3.02157 14.7148 3.79714C15.0205 4.57271 15.261 5.41353 15.4363 6.3196C15.6152 7.22567 15.7047 8.12056 15.7047 9.00426C15.7047 9.66424 15.6525 10.3354 15.5481 11.0178C15.4474 11.7001 15.3057 12.3601 15.123 12.9977C14.9441 13.6353 14.7315 14.2207 14.4854 14.7539C14.2431 15.2871 13.9783 15.7383 13.6912 16.1074H15.5984C16.333 15.1119 16.8848 14.0287 17.254 12.8579ZM9.52521 6.39791L9.39657 8.6631H10.7557L10.6326 6.39791L12.5343 7.64516L13.2166 6.45944L11.1807 5.4415L13.2166 4.42357L12.5343 3.23785L10.6326 4.48509L10.7557 2.21991H9.39657L9.52521 4.48509L7.62357 3.23785L6.94122 4.42357L8.9715 5.4415L6.94122 6.45944L7.62357 7.64516L9.52521 6.39791ZM6.00857 13.7975C5.66926 13.7975 5.37842 13.6782 5.13605 13.4396C4.89369 13.2009 4.77437 12.9101 4.7781 12.567C4.77437 12.2315 4.89369 11.9444 5.13605 11.7057C5.37842 11.4671 5.66926 11.3478 6.00857 11.3478C6.33669 11.3478 6.62194 11.4671 6.8643 11.7057C7.1104 11.9444 7.23531 12.2315 7.23904 12.567C7.23531 12.7945 7.17565 13.0014 7.06006 13.1879C6.9482 13.3743 6.79905 13.5235 6.61262 13.6353C6.42991 13.7435 6.22856 13.7975 6.00857 13.7975Z" fill="currentColor"/>
</svg>
