<svg width="18" height="18" viewBox="0 0 18 18" fill="none" xmlns="http://www.w3.org/2000/svg">
<g clip-path="url(#clip0_3059_16473)">
<path fill-rule="evenodd" clip-rule="evenodd" d="M8.34573 4.97294C6.19903 5.14462 4.32936 6.64648 3.72379 8.81246C3.46794 9.73042 3.46673 10.7007 3.7203 11.6192C3.9739 12.5378 4.47276 13.37 5.16338 14.0266C5.85401 14.6831 6.71034 15.1393 7.64054 15.346C8.57074 15.5528 9.53972 15.5025 10.4436 15.2004C11.3474 14.8982 12.152 14.3558 12.771 13.6312C13.3901 12.9066 13.8003 12.0271 13.9576 11.0871C14.1149 10.1472 14.0134 9.18214 13.664 8.29555C13.3145 7.40897 12.7304 6.63428 11.9741 6.05456C11.6454 5.8026 11.5832 5.33185 11.8352 5.0031C12.0872 4.67435 12.5579 4.61209 12.8866 4.86405C13.8589 5.60941 14.61 6.60544 15.0593 7.74533C15.5086 8.88522 15.6391 10.126 15.4368 11.3345C15.2346 12.543 14.7072 13.6738 13.9113 14.6054C13.1153 15.5371 12.0808 16.2345 10.9188 16.6229C9.75669 17.0113 8.51086 17.0761 7.31489 16.8102C6.11892 16.5444 5.01792 15.9579 4.12998 15.1138C3.24203 14.2696 2.60064 13.1997 2.27459 12.0186C1.94853 10.8375 1.95012 9.5899 2.27917 8.40956C3.00519 5.81233 5.15921 3.94645 7.70566 3.53956L6.20877 2.67533C5.85012 2.46826 5.72727 2.0096 5.93437 1.65088C6.14148 1.29216 6.60012 1.16922 6.95877 1.37629L10.2058 3.25096C10.5644 3.45803 10.6873 3.91669 10.4802 4.27541L10.2837 4.61567C10.2738 4.63472 10.2631 4.65326 10.2517 4.67124L8.60519 7.523C8.39809 7.88172 7.93945 8.00466 7.58079 7.79759C7.22214 7.59052 7.09928 7.13186 7.30639 6.77314L8.34573 4.97294Z" fill="currentColor"/>
</g>
<defs>
<clipPath id="clip0_3059_16473">
<rect width="18" height="18" fill="currentColor"/>
</clipPath>
</defs>
</svg>
