<svg width="18" height="18" viewBox="0 0 18 18" fill="none" xmlns="http://www.w3.org/2000/svg">
<g clip-path="url(#clip0_4436_329)">
<path d="M3.9375 7.3125H1.6875C1.37684 7.3125 1.125 7.56434 1.125 7.875V10.125C1.125 10.4357 1.37684 10.6875 1.6875 10.6875H3.9375C4.24816 10.6875 4.5 10.4357 4.5 10.125V7.875C4.5 7.56434 4.24816 7.3125 3.9375 7.3125Z" stroke="currentColor" stroke-width="1.5" stroke-linecap="round" stroke-linejoin="round"/>
<path d="M14.625 2.8125H11.25C10.9393 2.8125 10.6875 3.06434 10.6875 3.375V6.75C10.6875 7.06066 10.9393 7.3125 11.25 7.3125H14.625C14.9357 7.3125 15.1875 7.06066 15.1875 6.75V3.375C15.1875 3.06434 14.9357 2.8125 14.625 2.8125Z" stroke="currentColor" stroke-width="1.5" stroke-linecap="round" stroke-linejoin="round"/>
<path d="M14.625 10.6875H11.25C10.9393 10.6875 10.6875 10.9393 10.6875 11.25V14.625C10.6875 14.9357 10.9393 15.1875 11.25 15.1875H14.625C14.9357 15.1875 15.1875 14.9357 15.1875 14.625V11.25C15.1875 10.9393 14.9357 10.6875 14.625 10.6875Z" stroke="currentColor" stroke-width="1.5" stroke-linecap="round" stroke-linejoin="round"/>
<path d="M4.5 9H7.875" stroke="currentColor" stroke-width="1.5" stroke-linecap="round" stroke-linejoin="round"/>
<path d="M10.6875 12.9375H9C8.70163 12.9375 8.41548 12.819 8.20451 12.608C7.99353 12.397 7.875 12.1109 7.875 11.8125V6.1875C7.875 5.88913 7.99353 5.60298 8.20451 5.39201C8.41548 5.18103 8.70163 5.0625 9 5.0625H10.6875" stroke="currentColor" stroke-width="1.5" stroke-linecap="round" stroke-linejoin="round"/>
</g>
<defs>
<clipPath id="clip0_4436_329">
<rect width="18" height="18" fill="white"/>
</clipPath>
</defs>
</svg>
