<svg width="226" height="81" viewBox="0 0 226 81" fill="none" xmlns="http://www.w3.org/2000/svg">
<path d="M40.4382 31.3571H50.0337V54.2143H61V62.2143H50.0337V80.5H40.4382V62.2143H0V52.8429L39.0674 0.5H49.8052L11.7659 51.5857C11.0044 52.7286 10.3571 53.4524 9.82397 53.7571V54.2143H40.4382V31.3571Z" fill="#7F8792"/>
<g clip-path="url(#clip0_9001_8010)">
<path d="M108.746 36.373V28.1191C108.746 25.93 109.616 23.8305 111.164 22.2826C112.712 20.7347 114.811 19.8651 117 19.8651C119.189 19.8651 121.289 20.7347 122.836 22.2826C124.384 23.8305 125.254 25.93 125.254 28.1191V36.373M117 3.35715C146.714 3.35715 154.143 10.7857 154.143 40.5C154.143 70.2143 146.714 77.6429 117 77.6429C87.2857 77.6429 79.8572 70.2143 79.8572 40.5C79.8572 10.7857 87.2857 3.35715 117 3.35715ZM100.492 40.5C100.492 39.4055 100.927 38.3557 101.701 37.5818C102.475 36.8078 103.525 36.373 104.619 36.373H129.381C130.476 36.373 131.525 36.8078 132.299 37.5818C133.073 38.3557 133.508 39.4055 133.508 40.5V52.881C133.508 53.9755 133.073 55.0252 132.299 55.7992C131.525 56.5731 130.476 57.0079 129.381 57.0079H104.619C103.525 57.0079 102.475 56.5731 101.701 55.7992C100.927 55.0252 100.492 53.9755 100.492 52.881V40.5Z" stroke="url(#paint0_linear_9001_8010)" stroke-width="6" stroke-linecap="round" stroke-linejoin="round"/>
</g>
<path d="M219.261 40.0429L223.716 43.7C224.858 44.6143 225.505 45.3 225.657 45.7571C225.886 46.2143 226 47.3571 226 49.1857V70.2143C226 71.7381 225.848 72.8048 225.543 73.4143C225.315 74.0238 224.744 74.8238 223.83 75.8143L221.774 77.8714C220.022 79.6238 218.233 80.5 216.405 80.5H183.966C182.138 80.5 180.31 79.7381 178.483 78.2143L175.741 75.9286C173.914 74.4048 173 72.5 173 70.2143V65.6429H182.595V67.8143C182.595 68.9571 182.633 69.7191 182.709 70.1C182.861 70.4048 183.28 70.8238 183.966 71.3571C184.651 71.8905 185.184 72.2333 185.565 72.3857C185.945 72.4619 186.821 72.5 188.192 72.5H210.808C212.179 72.5 213.055 72.4619 213.435 72.3857C213.816 72.2333 214.349 71.8905 215.034 71.3571C215.72 70.8238 216.101 70.4048 216.177 70.1C216.329 69.7191 216.405 68.9571 216.405 67.8143V50.5571C216.405 48.881 215.72 47.4333 214.349 46.2143L212.636 44.7286C211.494 43.7381 210.694 43.1667 210.237 43.0143C209.78 42.8619 208.828 42.7857 207.381 42.7857H189.106V35.4714H205.782C207.229 35.4714 208.181 35.3952 208.638 35.2429C209.095 35.0905 209.894 34.5191 211.037 33.5286L212.75 32.1571C213.892 31.2429 214.54 30.5952 214.692 30.2143C214.92 29.7571 215.034 28.8048 215.034 27.3571V13.1857C215.034 12.0429 214.958 11.319 214.806 11.0143C214.73 10.6333 214.349 10.1762 213.664 9.64286C212.978 9.10952 212.445 8.80477 212.065 8.72858C211.684 8.57619 210.808 8.5 209.437 8.5H190.591C189.144 8.5 188.23 8.57619 187.849 8.72858C187.468 8.80477 186.935 9.10952 186.25 9.64286C185.565 10.1762 185.146 10.6333 184.994 11.0143C184.917 11.319 184.879 12.0429 184.879 13.1857V15.3571H175.284V10.7857C175.284 8.5 176.198 6.59524 178.026 5.07143L180.767 2.78572C182.595 1.26191 184.422 0.5 186.25 0.5H213.664C215.491 0.5 217.319 1.26191 219.147 2.78572L221.888 5.07143C223.716 6.59524 224.629 8.5 224.629 10.7857V29.5286C224.629 30.8238 224.515 31.6619 224.287 32.0429C224.134 32.4238 223.563 32.9952 222.573 33.7571L219.261 36.5C218.042 37.4905 216.976 37.9857 216.062 37.9857V38.5571C216.976 38.5571 218.042 39.0524 219.261 40.0429Z" fill="#7F8792"/>
<defs>
<linearGradient id="paint0_linear_9001_8010" x1="79.8572" y1="40.5" x2="154.143" y2="40.5" gradientUnits="userSpaceOnUse">
<stop stop-color="#00DBDE"/>
<stop offset="1" stop-color="#FC00FF"/>
</linearGradient>
<clipPath id="clip0_9001_8010">
<rect width="80" height="80" fill="white" transform="translate(77 0.5)"/>
</clipPath>
</defs>
</svg>
