<svg width="230" height="81" viewBox="0 0 230 81" fill="none" xmlns="http://www.w3.org/2000/svg">
<path d="M40.4382 31.3571H50.0337V54.2143H61V62.2143H50.0337V80.5H40.4382V62.2143H0V52.8429L39.0674 0.5H49.8052L11.7659 51.5857C11.0044 52.7286 10.3571 53.4524 9.82397 53.7571V54.2143H40.4382V31.3571Z" fill="#7F8792"/>
<g clip-path="url(#clip0_9001_8022)">
<path d="M132.728 58.2265L151.5 77M78.5 35.2892C78.5 43.5876 81.7962 51.5462 87.6634 57.414C93.5307 63.2819 101.488 66.5784 109.786 66.5784C118.083 66.5784 126.041 63.2819 131.908 57.414C137.776 51.5462 141.072 43.5876 141.072 35.2892C141.072 26.9908 137.776 19.0323 131.908 13.1644C126.041 7.29653 118.083 4 109.786 4C101.488 4 93.5307 7.29653 87.6634 13.1644C81.7962 19.0323 78.5 26.9908 78.5 35.2892Z" stroke="url(#paint0_linear_9001_8022)" stroke-width="8" stroke-linecap="round" stroke-linejoin="round"/>
</g>
<path d="M209.438 31.3571H219.034V54.2143H230V62.2143H219.034V80.5H209.438V62.2143H169V52.8429L208.067 0.5H218.805L180.766 51.5857C180.004 52.7286 179.357 53.4524 178.824 53.7571V54.2143H209.438V31.3571Z" fill="#7F8792"/>
<defs>
<linearGradient id="paint0_linear_9001_8022" x1="78.5" y1="40.5" x2="151.5" y2="40.5" gradientUnits="userSpaceOnUse">
<stop stop-color="#00DBDE"/>
<stop offset="1" stop-color="#FC00FF"/>
</linearGradient>
<clipPath id="clip0_9001_8022">
<rect width="80" height="80" fill="white" transform="translate(75 0.5)"/>
</clipPath>
</defs>
</svg>
