<svg width="40" height="40" viewBox="0 0 40 40" fill="none" xmlns="http://www.w3.org/2000/svg">
<path d="M36.8278 6.79107L12.0312 0.14685C9.74874 -0.464734 7.40265 0.88978 6.79107 3.17224L0.14685 27.9688C-0.464733 30.2513 0.88978 32.5974 3.17224 33.2089L27.9688 39.8532C30.2513 40.4647 32.5974 39.1102 33.2089 36.8278L39.8532 12.0312C40.4647 9.74874 39.1102 7.40265 36.8278 6.79107Z" fill="url(#paint0_linear_2033_13010)" fill-opacity="0.22"/>
<path d="M34.7056 17.8979L22.0998 5.29212C20.9395 4.13179 19.0582 4.13179 17.8979 5.29212L5.29212 17.8979C4.13179 19.0582 4.13179 20.9395 5.29212 22.0998L17.8979 34.7056C19.0582 35.866 20.9395 35.866 22.0998 34.7056L34.7056 22.0998C35.866 20.9395 35.866 19.0582 34.7056 17.8979Z" fill="url(#paint1_linear_2033_13010)"/>
<defs>
<linearGradient id="paint0_linear_2033_13010" x1="0.941504" y1="-3.8143" x2="40.8746" y2="40.8728" gradientUnits="userSpaceOnUse">
<stop stop-color="#1761B9"/>
<stop offset="1" stop-color="#90C2FF"/>
</linearGradient>
<linearGradient id="paint1_linear_2033_13010" x1="43.2965" y1="3.19253" x2="7.16653" y2="33.6178" gradientUnits="userSpaceOnUse">
<stop stop-color="#054692"/>
<stop offset="1" stop-color="#90C2FF"/>
</linearGradient>
</defs>
</svg>
