<svg width="49" height="16" viewBox="0 0 49 16" fill="none"
  xmlns="http://www.w3.org/2000/svg">
  <path d="M0 16V0H8.46408C8.86059 0 9.2266 0.152381 9.56212 0.457144L11.7582 2.28571C12.1242 2.59048 12.3072 2.89524 12.3072 3.2V12.8C12.3072 13.1048 12.1242 13.4095 11.7582 13.7143L9.56212 15.5429C9.2266 15.8476 8.86059 16 8.46408 16H0ZM10.3856 12.1143V3.88571C10.3856 3.58095 10.2026 3.27619 9.83663 2.97143L8.73859 2.05714C8.40307 1.75238 8.03706 1.6 7.64054 1.6H1.92157V14.4H7.64054C8.03706 14.4 8.40307 14.2476 8.73859 13.9429L9.83663 13.0286C10.2026 12.7238 10.3856 12.419 10.3856 12.1143Z" fill="url(#paint0_linear_6605_1232)"/>
  <path d="M16.308 0H18.2296V16H16.308V0Z" fill="url(#paint1_linear_6605_1232)"/>
  <path d="M21.6651 16L27.1553 0H29.8546L35.4592 16H33.5376L32.3481 12.6857H24.7304L23.5866 16H21.6651ZM28.5507 1.37143H28.4592C28.4592 1.55429 28.4058 1.77524 28.2991 2.03429L25.2108 11.2H31.8677L28.7108 2.03429C28.6041 1.77524 28.5507 1.55429 28.5507 1.37143Z" fill="url(#paint2_linear_6605_1232)"/>
  <path d="M48.7758 14.4V16H38.8935V0H40.815V14.4H48.7758Z" fill="url(#paint3_linear_6605_1232)"/>
  <defs>
    <linearGradient id="paint0_linear_6605_1232" x1="0" y1="8" x2="48.7758" y2="8" gradientUnits="userSpaceOnUse">
      <stop stop-color="#00DBDE"/>
      <stop offset="1" stop-color="#FC00FF"/>
    </linearGradient>
    <linearGradient id="paint1_linear_6605_1232" x1="0" y1="8" x2="48.7758" y2="8" gradientUnits="userSpaceOnUse">
      <stop stop-color="#00DBDE"/>
      <stop offset="1" stop-color="#FC00FF"/>
    </linearGradient>
    <linearGradient id="paint2_linear_6605_1232" x1="0" y1="8" x2="48.7758" y2="8" gradientUnits="userSpaceOnUse">
      <stop stop-color="#00DBDE"/>
      <stop offset="1" stop-color="#FC00FF"/>
    </linearGradient>
    <linearGradient id="paint3_linear_6605_1232" x1="0" y1="8" x2="48.7758" y2="8" gradientUnits="userSpaceOnUse">
      <stop stop-color="#00DBDE"/>
      <stop offset="1" stop-color="#FC00FF"/>
    </linearGradient>
  </defs>
</svg>
