<svg width="196" height="121" viewBox="0 0 196 121" fill="none" xmlns="http://www.w3.org/2000/svg">
<path d="M7.66667 50.8415V11.3293C7.66667 9.08537 7.7631 7.67073 7.95597 7.08537C8.24528 6.5 9.11321 5.71951 10.5597 4.7439L13.7421 2.54878C15.1887 1.57317 16.2013 0.987808 16.7799 0.792689C17.3585 0.597563 18.5639 0.5 20.3962 0.5H23V6.20732C23 8.45123 22.8553 9.86586 22.566 10.4512C22.3732 10.939 21.6499 11.6707 20.3962 12.6463C19.239 13.4268 18.5639 14.1098 18.3711 14.6951C18.1782 15.1829 18.0818 16.5488 18.0818 18.7927V54.7927C18.0818 57.0366 17.9371 58.5 17.6478 59.1829C17.4549 59.7683 16.6352 60.6463 15.1887 61.8171L11.4277 64.8902C10.2704 65.8659 9.20964 66.3537 8.24528 66.3537V66.939C9.20964 66.939 10.2704 67.4268 11.4277 68.4024L15.1887 71.4756C16.6352 72.6463 17.4549 73.5732 17.6478 74.2561C17.9371 74.8415 18.0818 76.2561 18.0818 78.5V102.207C18.0818 104.451 18.1782 105.817 18.3711 106.305C18.5639 106.89 19.239 107.573 20.3962 108.354C21.6499 109.329 22.3732 110.061 22.566 110.549C22.8553 111.134 23 112.549 23 114.793V120.5H20.3962C18.5639 120.5 17.3585 120.402 16.7799 120.207C16.2013 120.012 15.1887 119.427 13.7421 118.451L10.5597 116.256C9.11321 115.28 8.24528 114.5 7.95597 113.915C7.7631 113.329 7.66667 111.915 7.66667 109.671V82.4512C7.66667 80.3049 6.79874 78.4512 5.06289 76.8902L0 72.5V60.7927L5.06289 56.4024C6.79874 54.8415 7.66667 52.9878 7.66667 50.8415Z" fill="#7F8792"/>
<path d="M90.9997 102.956C89.5732 102.537 88.2856 101.743 87.2715 100.658C86.2575 99.5719 85.5543 98.2342 85.2354 96.7844C84.917 95.4724 84.2927 94.2541 83.4134 93.2285C82.5341 92.2029 81.4246 91.399 80.1753 90.8824C78.9259 90.3657 77.572 90.1508 76.2238 90.2551C74.8755 90.3595 73.571 90.7801 72.4164 91.4829C64.7289 96.1577 55.9255 87.3749 60.6087 79.6962C61.3117 78.5441 61.7324 77.2427 61.8367 75.8978C61.941 74.5528 61.7259 73.2023 61.2089 71.9559C60.6919 70.7096 59.8876 69.6026 58.8613 68.725C57.835 67.8473 56.6158 67.2238 55.3027 66.905C46.5541 64.7864 46.5541 52.3632 55.3027 50.2446C56.617 49.9267 57.8375 49.3035 58.8649 48.4258C59.8923 47.5481 60.6976 46.4406 61.2152 45.1935C61.7328 43.9464 61.9481 42.5949 61.8436 41.249C61.7391 39.9031 61.3176 38.6009 60.6137 37.4484C55.9304 29.7746 64.7289 20.9869 72.4213 25.6617C77.4035 28.6855 83.8603 26.0099 85.2354 20.3652C87.3578 11.6322 99.8032 11.6322 101.926 20.3652C102.244 21.6772 102.868 22.8955 103.748 23.9211C104.627 24.9467 105.736 25.7505 106.986 26.2672C108.235 26.7839 109.589 26.9988 110.937 26.8945C112.285 26.7901 113.59 26.3694 114.745 25.6667C122.432 20.9918 131.236 29.7746 126.552 37.4533C125.849 38.6054 125.429 39.9068 125.324 41.2518C125.22 42.5967 125.435 43.9473 125.952 45.1936C126.469 46.44 127.273 47.547 128.3 48.4246C129.326 49.3023 130.545 49.9258 131.858 50.2446C138.395 51.8261 140.049 59.1666 136.816 63.6575" stroke="url(#paint0_linear_9001_8033)" stroke-width="8" stroke-linecap="round" stroke-linejoin="round"/>
<path d="M78.634 58.5748C78.634 62.5318 80.2087 66.3267 83.0117 69.1247C85.8147 71.9227 89.6164 73.4946 93.5805 73.4946C97.5445 73.4946 101.346 71.9227 104.149 69.1247C106.952 66.3267 108.527 62.5318 108.527 58.5748C108.527 54.6178 106.952 50.8229 104.149 48.0249C101.346 45.2269 97.5445 43.655 93.5805 43.655C89.6164 43.655 85.8147 45.2269 83.0117 48.0249C80.2087 50.8229 78.634 54.6178 78.634 58.5748Z" stroke="url(#paint1_linear_9001_8033)" stroke-width="8" stroke-linecap="round" stroke-linejoin="round"/>
<path d="M121.317 100.504C122.88 102.064 122.883 104.596 121.322 106.16C119.761 107.723 117.229 107.725 115.666 106.165L121.317 100.504ZM130.606 80.615C132.118 79.1005 134.543 79.0514 136.114 80.4685L136.263 80.6101L146.227 90.5564C146.979 91.3066 147.401 92.3255 147.401 93.3874C147.401 94.4495 146.979 95.4681 146.227 96.2185L136.263 106.165C134.7 107.725 132.167 107.723 130.606 106.16C129.046 104.597 129.048 102.064 130.611 100.504L137.739 93.3874L130.611 86.2722L130.469 86.1228C129.05 84.5539 129.095 82.1295 130.606 80.615ZM115.815 80.4685C117.387 79.0516 119.81 79.1008 121.322 80.615C122.883 82.1784 122.881 84.7115 121.317 86.2722L114.188 93.3874L121.317 100.504L118.491 103.334L115.666 106.165L105.701 96.2185C104.949 95.4682 104.527 94.4494 104.527 93.3874C104.527 92.3255 104.949 91.3066 105.701 90.5564L115.666 80.6101L115.815 80.4685Z" fill="url(#paint2_linear_9001_8033)"/>
<path d="M188.333 50.8415V11.3293C188.333 9.08537 188.237 7.67073 188.044 7.08537C187.755 6.5 186.887 5.71951 185.44 4.7439L182.258 2.54878C180.811 1.57317 179.799 0.987808 179.22 0.792689C178.642 0.597563 177.436 0.5 175.604 0.5H173V6.20732C173 8.45123 173.145 9.86586 173.434 10.4512C173.627 10.939 174.35 11.6707 175.604 12.6463C176.761 13.4268 177.436 14.1098 177.629 14.6951C177.822 15.1829 177.918 16.5488 177.918 18.7927V54.7927C177.918 57.0366 178.063 58.5 178.352 59.1829C178.545 59.7683 179.365 60.6463 180.811 61.8171L184.572 64.8902C185.73 65.8659 186.79 66.3537 187.755 66.3537V66.939C186.79 66.939 185.73 67.4268 184.572 68.4024L180.811 71.4756C179.365 72.6463 178.545 73.5732 178.352 74.2561C178.063 74.8415 177.918 76.2561 177.918 78.5V102.207C177.918 104.451 177.822 105.817 177.629 106.305C177.436 106.89 176.761 107.573 175.604 108.354C174.35 109.329 173.627 110.061 173.434 110.549C173.145 111.134 173 112.549 173 114.793V120.5H175.604C177.436 120.5 178.642 120.402 179.22 120.207C179.799 120.012 180.811 119.427 182.258 118.451L185.44 116.256C186.887 115.28 187.755 114.5 188.044 113.915C188.237 113.329 188.333 111.915 188.333 109.671V82.4512C188.333 80.3049 189.201 78.4512 190.937 76.8902L196 72.5V60.7927L190.937 56.4024C189.201 54.8415 188.333 52.9878 188.333 50.8415Z" fill="#7F8792"/>
<defs>
<linearGradient id="paint0_linear_9001_8033" x1="48.7412" y1="58.3858" x2="138.42" y2="58.3858" gradientUnits="userSpaceOnUse">
<stop stop-color="#00DBDE"/>
<stop offset="1" stop-color="#FC00FF"/>
</linearGradient>
<linearGradient id="paint1_linear_9001_8033" x1="78.634" y1="58.5748" x2="108.527" y2="58.5748" gradientUnits="userSpaceOnUse">
<stop stop-color="#00DBDE"/>
<stop offset="1" stop-color="#FC00FF"/>
</linearGradient>
<linearGradient id="paint2_linear_9001_8033" x1="104.527" y1="93.3875" x2="147.401" y2="93.3875" gradientUnits="userSpaceOnUse">
<stop stop-color="#00DBDE"/>
<stop offset="1" stop-color="#FC00FF"/>
</linearGradient>
</defs>
</svg>
