<svg width="18" height="18" viewBox="0 0 18 18" fill="none" xmlns="http://www.w3.org/2000/svg">
<path d="M15.222 5.59055L11.2845 1.65305C11.206 1.57472 11.113 1.51261 11.0105 1.47026C10.9081 1.42791 10.7983 1.40616 10.6875 1.40625H3.9375C3.56454 1.40625 3.20685 1.55441 2.94313 1.81813C2.67941 2.08185 2.53125 2.43954 2.53125 2.8125V7.59375C2.53125 7.81753 2.62014 8.03214 2.77838 8.19037C2.93661 8.34861 3.15122 8.4375 3.375 8.4375C3.59878 8.4375 3.81339 8.34861 3.97162 8.19037C4.12986 8.03214 4.21875 7.81753 4.21875 7.59375V3.09375H9.5625V6.46875C9.5625 6.69253 9.6514 6.90714 9.80963 7.06537C9.96786 7.22361 10.1825 7.3125 10.4062 7.3125H13.7812V14.9062H8.71875C8.49497 14.9062 8.28036 14.9951 8.12213 15.1534C7.96389 15.3116 7.875 15.5262 7.875 15.75C7.875 15.9738 7.96389 16.1884 8.12213 16.3466C8.28036 16.5049 8.49497 16.5938 8.71875 16.5938H14.0625C14.4355 16.5938 14.7931 16.4456 15.0569 16.1819C15.3206 15.9181 15.4688 15.5605 15.4688 15.1875V6.1875C15.4688 6.07666 15.4471 5.9669 15.4047 5.86447C15.3624 5.76204 15.3003 5.66896 15.222 5.59055ZM11.25 4.00781L12.8672 5.625H11.25V4.00781ZM3.375 12.6562C3.375 13.2659 3.76172 13.7812 4.21875 13.7812C4.31651 13.7781 4.41261 13.755 4.5012 13.7136C4.5898 13.6721 4.66905 13.6131 4.73414 13.5401C4.88892 13.3784 5.10159 13.2848 5.32535 13.2799C5.54912 13.2751 5.76567 13.3593 5.92734 13.5141C6.08902 13.6688 6.18259 13.8815 6.18747 14.1053C6.19235 14.329 6.10814 14.5456 5.95336 14.7073C5.73137 14.9457 5.46299 15.1362 5.1647 15.2672C4.86641 15.3981 4.54451 15.4667 4.21875 15.4688C2.82305 15.4688 1.6875 14.2073 1.6875 12.6562C1.6875 11.1052 2.82305 9.84375 4.21875 9.84375C4.54451 9.84579 4.86641 9.9144 5.1647 10.0453C5.46299 10.1763 5.73137 10.3668 5.95336 10.6052C6.10814 10.7669 6.19235 10.9835 6.18747 11.2072C6.18259 11.431 6.08902 11.6437 5.92734 11.7984C5.76567 11.9532 5.54912 12.0374 5.32535 12.0326C5.10159 12.0277 4.88892 11.9341 4.73414 11.7724C4.66905 11.6994 4.5898 11.6404 4.5012 11.5989C4.41261 11.5575 4.31651 11.5344 4.21875 11.5312C3.76172 11.5312 3.375 12.0466 3.375 12.6562Z" fill="currentColor"/>
</svg>
