<svg width="18" height="18" viewBox="0 0 18 18" fill="none" xmlns="http://www.w3.org/2000/svg">
<path d="M3.375 12.6562C3.375 13.2659 3.76172 13.7812 4.21875 13.7812C4.31654 13.7782 4.41269 13.7553 4.50131 13.7138C4.58993 13.6723 4.66915 13.6132 4.73414 13.5401C4.88892 13.3784 5.10159 13.2848 5.32535 13.2799C5.54912 13.2751 5.76567 13.3593 5.92734 13.5141C6.08902 13.6688 6.18259 13.8815 6.18747 14.1053C6.19235 14.329 6.10814 14.5456 5.95336 14.7073C5.73137 14.9457 5.46299 15.1362 5.1647 15.2672C4.86641 15.3981 4.54451 15.4667 4.21875 15.4688C2.82305 15.4688 1.6875 14.2073 1.6875 12.6562C1.6875 11.1052 2.82305 9.84375 4.21875 9.84375C4.54451 9.84579 4.86641 9.9144 5.1647 10.0453C5.46299 10.1763 5.73137 10.3668 5.95336 10.6052C6.10814 10.7669 6.19235 10.9835 6.18747 11.2072C6.18259 11.431 6.08902 11.6437 5.92734 11.7984C5.76567 11.9532 5.54912 12.0374 5.32535 12.0326C5.10159 12.0277 4.88892 11.9341 4.73414 11.7724C4.66905 11.6994 4.5898 11.6404 4.5012 11.5989C4.41261 11.5575 4.31651 11.5344 4.21875 11.5312C3.76172 11.5312 3.375 12.0466 3.375 12.6562ZM2.53125 7.59375V2.8125C2.53125 2.43954 2.67941 2.08185 2.94313 1.81813C3.20685 1.55441 3.56454 1.40625 3.9375 1.40625H10.6875C10.7983 1.40616 10.9081 1.42791 11.0105 1.47026C11.113 1.51261 11.206 1.57472 11.2845 1.65305L15.222 5.59055C15.3003 5.66896 15.3624 5.76204 15.4047 5.86447C15.4471 5.9669 15.4688 6.07666 15.4688 6.1875V7.59375C15.4688 7.81753 15.3799 8.03214 15.2216 8.19037C15.0634 8.34861 14.8488 8.4375 14.625 8.4375C14.4012 8.4375 14.1866 8.34861 14.0284 8.19037C13.8701 8.03214 13.7812 7.81753 13.7812 7.59375V7.3125H10.4062C10.1825 7.3125 9.96786 7.22361 9.80963 7.06537C9.6514 6.90714 9.5625 6.69253 9.5625 6.46875V3.09375H4.21875V7.59375C4.21875 7.81753 4.12986 8.03214 3.97162 8.19037C3.81339 8.34861 3.59878 8.4375 3.375 8.4375C3.15122 8.4375 2.93661 8.34861 2.77838 8.19037C2.62014 8.03214 2.53125 7.81753 2.53125 7.59375ZM11.25 4.00781V5.625H12.8672L11.25 4.00781ZM10.4062 11.8125H9.84375V11.25C9.84375 11.0262 9.75486 10.8116 9.59662 10.6534C9.43839 10.4951 9.22378 10.4062 9 10.4062C8.77622 10.4062 8.56161 10.4951 8.40338 10.6534C8.24514 10.8116 8.15625 11.0262 8.15625 11.25V11.8125H7.59375C7.36997 11.8125 7.15536 11.9014 6.99713 12.0596C6.83889 12.2179 6.75 12.4325 6.75 12.6562C6.75 12.88 6.83889 13.0946 6.99713 13.2529C7.15536 13.4111 7.36997 13.5 7.59375 13.5H8.15625V14.0625C8.15625 14.2863 8.24514 14.5009 8.40338 14.6591C8.56161 14.8174 8.77622 14.9062 9 14.9062C9.22378 14.9062 9.43839 14.8174 9.59662 14.6591C9.75486 14.5009 9.84375 14.2863 9.84375 14.0625V13.5H10.4062C10.63 13.5 10.8446 13.4111 11.0029 13.2529C11.1611 13.0946 11.25 12.88 11.25 12.6562C11.25 12.4325 11.1611 12.2179 11.0029 12.0596C10.8446 11.9014 10.63 11.8125 10.4062 11.8125ZM15.4688 11.8125H14.9062V11.25C14.9062 11.0262 14.8174 10.8116 14.6591 10.6534C14.5009 10.4951 14.2863 10.4062 14.0625 10.4062C13.8387 10.4062 13.6241 10.4951 13.4659 10.6534C13.3076 10.8116 13.2188 11.0262 13.2188 11.25V11.8125H12.6562C12.4325 11.8125 12.2179 11.9014 12.0596 12.0596C11.9014 12.2179 11.8125 12.4325 11.8125 12.6562C11.8125 12.88 11.9014 13.0946 12.0596 13.2529C12.2179 13.4111 12.4325 13.5 12.6562 13.5H13.2188V14.0625C13.2188 14.2863 13.3076 14.5009 13.4659 14.6591C13.6241 14.8174 13.8387 14.9062 14.0625 14.9062C14.2863 14.9062 14.5009 14.8174 14.6591 14.6591C14.8174 14.5009 14.9062 14.2863 14.9062 14.0625V13.5H15.4688C15.6925 13.5 15.9071 13.4111 16.0654 13.2529C16.2236 13.0946 16.3125 12.88 16.3125 12.6562C16.3125 12.4325 16.2236 12.2179 16.0654 12.0596C15.9071 11.9014 15.6925 11.8125 15.4688 11.8125Z" fill="currentColor"/>
</svg>
