<svg width="18" height="18" viewBox="0 0 18 18" fill="none" xmlns="http://www.w3.org/2000/svg">
<path d="M15.222 5.59055L11.2845 1.65305C11.206 1.57472 11.113 1.51261 11.0105 1.47026C10.9081 1.42791 10.7983 1.40616 10.6875 1.40625H3.9375C3.56454 1.40625 3.20685 1.55441 2.94313 1.81813C2.67941 2.08185 2.53125 2.43954 2.53125 2.8125V7.59375C2.53125 7.81753 2.62014 8.03214 2.77838 8.19037C2.93661 8.34861 3.15122 8.4375 3.375 8.4375C3.59878 8.4375 3.81339 8.34861 3.97162 8.19037C4.12986 8.03214 4.21875 7.81753 4.21875 7.59375V3.09375H9.5625V6.46875C9.5625 6.69253 9.65139 6.90714 9.80963 7.06537C9.96786 7.22361 10.1825 7.3125 10.4062 7.3125H13.7812V15.75C13.7812 15.9738 13.8701 16.1884 14.0284 16.3466C14.1866 16.5049 14.4012 16.5938 14.625 16.5938C14.8488 16.5938 15.0634 16.5049 15.2216 16.3466C15.3799 16.1884 15.4688 15.9738 15.4688 15.75V6.1875C15.4688 6.07666 15.4471 5.9669 15.4047 5.86447C15.3624 5.76204 15.3003 5.66896 15.222 5.59055ZM11.25 4.00781L12.8672 5.625H11.25V4.00781ZM2.8125 12.6562C2.8125 13.2659 3.19922 13.7812 3.65625 13.7812C3.75401 13.7781 3.85011 13.755 3.9387 13.7136C4.0273 13.6721 4.10655 13.6131 4.17164 13.5401C4.32642 13.3784 4.53909 13.2848 4.76285 13.2799C4.98662 13.2751 5.20317 13.3593 5.36484 13.5141C5.52652 13.6688 5.62009 13.8815 5.62497 14.1053C5.62985 14.329 5.54564 14.5456 5.39086 14.7073C5.16887 14.9457 4.90049 15.1362 4.6022 15.2672C4.30391 15.3981 3.98201 15.4667 3.65625 15.4688C2.26055 15.4688 1.125 14.2073 1.125 12.6562C1.125 11.1052 2.26055 9.84375 3.65625 9.84375C3.98201 9.84579 4.30391 9.9144 4.6022 10.0453C4.90049 10.1763 5.16887 10.3668 5.39086 10.6052C5.54564 10.7669 5.62985 10.9835 5.62497 11.2072C5.62009 11.431 5.52652 11.6437 5.36484 11.7984C5.20317 11.9532 4.98662 12.0374 4.76285 12.0326C4.53909 12.0277 4.32642 11.9341 4.17164 11.7724C4.10655 11.6994 4.0273 11.6404 3.9387 11.5989C3.85011 11.5575 3.75401 11.5344 3.65625 11.5312C3.19922 11.5312 2.8125 12.0466 2.8125 12.6562ZM12.0938 12.0938C12.3175 12.0938 12.5321 12.0049 12.6904 11.8466C12.8486 11.6884 12.9375 11.4738 12.9375 11.25C12.9375 11.0262 12.8486 10.8116 12.6904 10.6534C12.5321 10.4951 12.3175 10.4062 12.0938 10.4062H11.8125V10.125C11.8125 9.90122 11.7236 9.68661 11.5654 9.52838C11.4071 9.37015 11.1925 9.28125 10.9688 9.28125C10.745 9.28125 10.5304 9.37015 10.3721 9.52838C10.2139 9.68661 10.125 9.90122 10.125 10.125V10.4062H9.28125V10.125C9.28125 9.90122 9.19236 9.68661 9.03412 9.52838C8.87589 9.37015 8.66128 9.28125 8.4375 9.28125C8.21372 9.28125 7.99911 9.37015 7.84088 9.52838C7.68264 9.68661 7.59375 9.90122 7.59375 10.125V10.4062H7.3125C7.08872 10.4062 6.87411 10.4951 6.71588 10.6534C6.55764 10.8116 6.46875 11.0262 6.46875 11.25C6.46875 11.4738 6.55764 11.6884 6.71588 11.8466C6.87411 12.0049 7.08872 12.0938 7.3125 12.0938H7.59375V12.9375H7.3125C7.08872 12.9375 6.87411 13.0264 6.71588 13.1846C6.55764 13.3429 6.46875 13.5575 6.46875 13.7812C6.46875 14.005 6.55764 14.2196 6.71588 14.3779C6.87411 14.5361 7.08872 14.625 7.3125 14.625H7.59375V14.9062C7.59375 15.13 7.68264 15.3446 7.84088 15.5029C7.99911 15.6611 8.21372 15.75 8.4375 15.75C8.66128 15.75 8.87589 15.6611 9.03412 15.5029C9.19236 15.3446 9.28125 15.13 9.28125 14.9062V14.625H10.125V14.9062C10.125 15.13 10.2139 15.3446 10.3721 15.5029C10.5304 15.6611 10.745 15.75 10.9688 15.75C11.1925 15.75 11.4071 15.6611 11.5654 15.5029C11.7236 15.3446 11.8125 15.13 11.8125 14.9062V14.625H12.0938C12.3175 14.625 12.5321 14.5361 12.6904 14.3779C12.8486 14.2196 12.9375 14.005 12.9375 13.7812C12.9375 13.5575 12.8486 13.3429 12.6904 13.1846C12.5321 13.0264 12.3175 12.9375 12.0938 12.9375H11.8125V12.0938H12.0938ZM10.125 12.9375H9.28125V12.0938H10.125V12.9375Z" fill="currentColor"/>
</svg>
