<svg width="18" height="18" viewBox="0 0 18 18" fill="none" xmlns="http://www.w3.org/2000/svg">
<path d="M15.222 5.59125L11.2845 1.65375C11.2061 1.57529 11.113 1.51305 11.0106 1.47058C10.9082 1.42812 10.7984 1.40626 10.6875 1.40625H3.9375C3.56454 1.40625 3.20685 1.55441 2.94313 1.81813C2.67941 2.08185 2.53125 2.43954 2.53125 2.8125V15.1875C2.53125 15.5605 2.67941 15.9181 2.94313 16.1819C3.20685 16.4456 3.56454 16.5938 3.9375 16.5938H14.0625C14.4355 16.5938 14.7931 16.4456 15.0569 16.1819C15.3206 15.9181 15.4688 15.5605 15.4688 15.1875V6.1875C15.4687 5.9639 15.38 5.74945 15.222 5.59125ZM11.25 4.00781L12.8672 5.625H11.25V4.00781ZM4.21875 14.9062V3.09375H9.5625V6.46875C9.5625 6.69253 9.6514 6.90714 9.80963 7.06537C9.96786 7.22361 10.1825 7.3125 10.4062 7.3125H13.7812V14.9062H4.21875Z" fill="currentColor"/>
</svg>
