<svg width="18" height="18" viewBox="0 0 18 18" fill="none" xmlns="http://www.w3.org/2000/svg">
<path d="M3.375 10.6875V14.625C3.375 14.8488 3.28611 15.0634 3.12787 15.2216C2.96964 15.3799 2.75503 15.4688 2.53125 15.4688C2.30747 15.4688 2.09286 15.3799 1.93463 15.2216C1.77639 15.0634 1.6875 14.8488 1.6875 14.625V10.6875C1.6875 10.4637 1.77639 10.2491 1.93463 10.0909C2.09286 9.93264 2.30747 9.84375 2.53125 9.84375C2.75503 9.84375 2.96964 9.93264 3.12787 10.0909C3.28611 10.2491 3.375 10.4637 3.375 10.6875ZM8.4375 9.84375C8.21372 9.84375 7.99911 9.93264 7.84088 10.0909C7.68264 10.2491 7.59375 10.4637 7.59375 10.6875V11.9918L6.31125 10.1953C6.20721 10.0499 6.05965 9.94124 5.88986 9.8851C5.72008 9.82897 5.53685 9.82823 5.36661 9.88299C5.19638 9.93775 5.04795 10.0452 4.94273 10.1898C4.83752 10.3344 4.78098 10.5087 4.78125 10.6875V14.625C4.78125 14.8488 4.87014 15.0634 5.02838 15.2216C5.18661 15.3799 5.40122 15.4688 5.625 15.4688C5.84878 15.4688 6.06339 15.3799 6.22162 15.2216C6.37986 15.0634 6.46875 14.8488 6.46875 14.625V13.3207L7.75125 15.1172C7.82947 15.2261 7.93252 15.3148 8.05187 15.3759C8.17121 15.4371 8.30341 15.4689 8.4375 15.4688C8.52483 15.4686 8.61162 15.4551 8.69484 15.4287C8.86514 15.3741 9.0137 15.2669 9.1191 15.1225C9.22449 14.978 9.28128 14.8038 9.28125 14.625V10.6875C9.28125 10.4637 9.19235 10.2491 9.03412 10.0909C8.87589 9.93264 8.66128 9.84375 8.4375 9.84375ZM11.5312 9.84375C11.3075 9.84375 11.0929 9.93264 10.9346 10.0909C10.7764 10.2491 10.6875 10.4637 10.6875 10.6875V14.625C10.6875 14.8488 10.7764 15.0634 10.9346 15.2216C11.0929 15.3799 11.3075 15.4688 11.5312 15.4688C11.755 15.4688 11.9696 15.3799 12.1279 15.2216C12.2861 15.0634 12.375 14.8488 12.375 14.625V10.6875C12.375 10.4637 12.2861 10.2491 12.1279 10.0909C11.9696 9.93264 11.755 9.84375 11.5312 9.84375ZM15.4688 6.1875V15.75C15.4688 15.9738 15.3799 16.1884 15.2216 16.3466C15.0634 16.5049 14.8488 16.5938 14.625 16.5938C14.4012 16.5938 14.1866 16.5049 14.0284 16.3466C13.8701 16.1884 13.7812 15.9738 13.7812 15.75V7.3125H10.4062C10.1825 7.3125 9.96786 7.22361 9.80963 7.06537C9.6514 6.90714 9.5625 6.69253 9.5625 6.46875V3.09375H4.21875V7.59375C4.21875 7.81753 4.12986 8.03214 3.97162 8.19037C3.81339 8.34861 3.59878 8.4375 3.375 8.4375C3.15122 8.4375 2.93661 8.34861 2.77838 8.19037C2.62014 8.03214 2.53125 7.81753 2.53125 7.59375V2.8125C2.53125 2.43954 2.67941 2.08185 2.94313 1.81813C3.20685 1.55441 3.56454 1.40625 3.9375 1.40625H10.6875C10.7984 1.40626 10.9082 1.42812 11.0106 1.47058C11.113 1.51305 11.2061 1.57529 11.2845 1.65375L15.222 5.59125C15.38 5.74945 15.4687 5.9639 15.4688 6.1875ZM11.25 5.625H12.8672L11.25 4.00781V5.625Z" fill="currentColor"/>
</svg>
