<svg width="18" height="18" viewBox="0 0 18 18" fill="none"
  xmlns="http://www.w3.org/2000/svg">
  <path d="M2.53147 7.59375V2.8125C2.53147 2.43954 2.67963 2.08185 2.94335 1.81813C3.20708 1.55441 3.56476 1.40625 3.93772 1.40625H10.6877C10.7986 1.40616 10.9083 1.42791 11.0107 1.47026C11.1132 1.51261 11.2063 1.57472 11.2847 1.65305L15.2222 5.59055C15.3005 5.66896 15.3626 5.76204 15.405 5.86447C15.4473 5.9669 15.4691 6.07666 15.469 6.1875V7.59375C15.469 7.81753 15.3801 8.03214 15.2218 8.19037C15.0636 8.34861 14.849 8.4375 14.6252 8.4375C14.4014 8.4375 14.1868 8.34861 14.0286 8.19037C13.8704 8.03214 13.7815 7.81753 13.7815 7.59375V7.3125H10.4065C10.1827 7.3125 9.96808 7.22361 9.80985 7.06537C9.65162 6.90714 9.56272 6.69253 9.56272 6.46875V3.09375H4.21897V7.59375C4.21897 7.81753 4.13008 8.03214 3.97184 8.19037C3.81361 8.34861 3.599 8.4375 3.37522 8.4375C3.15144 8.4375 2.93683 8.34861 2.7786 8.19037C2.62037 8.03214 2.53147 7.81753 2.53147 7.59375ZM11.2502 5.625H12.8674L11.2502 4.00781V5.625Z" fill="currentColor"/>
  <path d="M7.92855 14.411C8.04028 14.2258 8.1096 14.0182 8.13152 13.803C8.28902 12.5859 7.12464 12.2463 6.43277 12.0473L6.42213 12.0443C6.1442 11.9637 5.85838 11.8808 5.698 11.7773C5.61011 11.7204 5.61152 11.707 5.61996 11.6438C5.62101 11.5926 5.63433 11.5425 5.65881 11.4976C5.68328 11.4527 5.71818 11.4143 5.76058 11.3857C6.08402 11.1663 6.83917 11.2641 7.15488 11.3463C7.29921 11.3843 7.45271 11.3633 7.58161 11.2881C7.7105 11.2129 7.80423 11.0895 7.84218 10.9452C7.88013 10.8009 7.85919 10.6474 7.78396 10.5185C7.70873 10.3896 7.58539 10.2958 7.44105 10.2579C7.29199 10.2192 5.96519 9.88945 5.13269 10.452C4.95658 10.57 4.80859 10.7254 4.69923 10.9071C4.58987 11.0887 4.52181 11.2922 4.49988 11.5031C4.35925 12.6197 5.45964 12.9382 6.11707 13.128C6.96574 13.3734 7.03957 13.474 7.01566 13.6617C6.99386 13.8312 6.92706 13.8966 6.86519 13.938C6.54527 14.1532 5.79855 14.0477 5.49058 13.9634C5.3469 13.9232 5.19313 13.9417 5.06312 14.0149C4.9331 14.0881 4.83749 14.2099 4.7973 14.3536C4.75711 14.4973 4.77565 14.651 4.84883 14.7811C4.92202 14.9111 5.04385 15.0067 5.18753 15.0469C5.53627 15.1382 5.89509 15.1854 6.25558 15.1875C6.66831 15.1875 7.12042 15.1172 7.48535 14.8739C7.66546 14.7542 7.81682 14.5961 7.92855 14.411Z" fill="currentColor"/>
  <path d="M3.99988 13.3594V10.6875C3.99988 10.5383 3.94061 10.3952 3.83513 10.2898C3.72964 10.1843 3.58656 10.125 3.43738 10.125C3.28819 10.125 3.14512 10.1843 3.03963 10.2898C2.93414 10.3952 2.87488 10.5383 2.87488 10.6875V13.3594C2.87488 13.5459 2.8008 13.7247 2.66894 13.8566C2.53708 13.9884 2.35823 14.0625 2.17175 14.0625C1.98527 14.0625 1.80643 13.9884 1.67457 13.8566C1.54271 13.7247 1.46863 13.5459 1.46863 13.3594C1.46863 13.2102 1.40936 13.0671 1.30388 12.9616C1.19839 12.8561 1.05531 12.7969 0.906128 12.7969C0.756944 12.7969 0.61387 12.8561 0.50838 12.9616C0.402891 13.0671 0.343628 13.2102 0.343628 13.3594C0.343628 13.8442 0.536233 14.3092 0.879073 14.6521C1.22191 14.9949 1.6869 15.1875 2.17175 15.1875C2.6566 15.1875 3.12159 14.9949 3.46443 14.6521C3.80727 14.3092 3.99988 13.8442 3.99988 13.3594Z" fill="currentColor"/>
  <path fill-rule="evenodd" clip-rule="evenodd" d="M10.7499 10.125C9.50886 10.125 8.49988 11.2605 8.49988 12.6562C8.49988 14.052 9.50886 15.1875 10.7499 15.1875C11.9909 15.1875 12.9999 14.052 12.9999 12.6562C12.9999 11.2605 11.9909 10.125 10.7499 10.125ZM9.62488 12.6562C9.62488 13.4297 10.1297 14.0625 10.7499 14.0625C11.37 14.0625 11.8749 13.4297 11.8749 12.6562C11.8749 11.8828 11.37 11.25 10.7499 11.25C10.1297 11.25 9.62488 11.8828 9.62488 12.6562Z" fill="currentColor"/>
  <path d="M17.4374 14.625V10.6875C17.4374 10.5383 17.3781 10.3952 17.2726 10.2897C17.1671 10.1843 17.0241 10.125 16.8749 10.125C16.7257 10.125 16.5826 10.1843 16.4771 10.2897C16.3716 10.3952 16.3124 10.5383 16.3124 10.6875V12.8672L14.5201 10.3605C14.4508 10.2636 14.3526 10.1911 14.2394 10.1536C14.1263 10.116 14.0042 10.1154 13.8907 10.1518C13.7772 10.1882 13.6782 10.2597 13.608 10.3559C13.5377 10.4522 13.4999 10.5683 13.4999 10.6875V14.625C13.4999 14.7742 13.5591 14.9172 13.6646 15.0227C13.7701 15.1282 13.9132 15.1875 14.0624 15.1875C14.2116 15.1875 14.3546 15.1282 14.4601 15.0227C14.5656 14.9172 14.6249 14.7742 14.6249 14.625V12.4453L16.4171 14.9519C16.4692 15.0248 16.5379 15.0842 16.6175 15.1252C16.6971 15.1661 16.7853 15.1875 16.8749 15.1875C16.9331 15.1876 16.991 15.1786 17.0464 15.1608C17.16 15.1244 17.259 15.0529 17.3293 14.9566C17.3995 14.8603 17.4374 14.7442 17.4374 14.625Z" fill="currentColor"/>
</svg>
