<svg width="18" height="18" viewBox="0 0 18 18" fill="none" xmlns="http://www.w3.org/2000/svg">
<path d="M7.03125 10.6875V14.625C7.03125 14.8488 6.94236 15.0634 6.78412 15.2216C6.62589 15.3799 6.41128 15.4688 6.1875 15.4688C5.96372 15.4688 5.74911 15.3799 5.59088 15.2216C5.43264 15.0634 5.34375 14.8488 5.34375 14.625V13.3643L4.90992 13.9838C4.83212 14.0949 4.72868 14.1856 4.60836 14.2482C4.48804 14.3109 4.3544 14.3436 4.21875 14.3436C4.0831 14.3436 3.94946 14.3109 3.82914 14.2482C3.70882 14.1856 3.60538 14.0949 3.52758 13.9838L3.09375 13.3643V14.625C3.09375 14.8488 3.00486 15.0634 2.84662 15.2216C2.68839 15.3799 2.47378 15.4688 2.25 15.4688C2.02622 15.4688 1.81161 15.3799 1.65338 15.2216C1.49514 15.0634 1.40625 14.8488 1.40625 14.625V10.6875C1.40629 10.5081 1.46353 10.3333 1.56965 10.1887C1.67577 10.044 1.82525 9.93689 1.99638 9.88296C2.16751 9.82902 2.35137 9.83105 2.52127 9.88873C2.69117 9.94642 2.83826 10.0568 2.94117 10.2037L4.21875 12.0284L5.49633 10.2037C5.59924 10.0568 5.74633 9.94642 5.91623 9.88873C6.08613 9.83105 6.26999 9.82902 6.44112 9.88296C6.61225 9.93689 6.76173 10.044 6.86785 10.1887C6.97397 10.3333 7.03121 10.5081 7.03125 10.6875ZM12.9375 12.6562C12.9375 13.0256 12.8648 13.3913 12.7234 13.7325C12.5821 14.0738 12.3749 14.3838 12.1137 14.645C11.8526 14.9062 11.5425 15.1133 11.2013 15.2547C10.8601 15.396 10.4943 15.4688 10.125 15.4688H9C8.77622 15.4688 8.56161 15.3799 8.40338 15.2216C8.24514 15.0634 8.15625 14.8488 8.15625 14.625V10.6875C8.15625 10.4637 8.24514 10.2491 8.40338 10.0909C8.56161 9.93264 8.77622 9.84375 9 9.84375H10.125C10.4943 9.84375 10.8601 9.9165 11.2013 10.0578C11.5425 10.1992 11.8526 10.4063 12.1137 10.6675C12.3749 10.9287 12.5821 11.2387 12.7234 11.58C12.8648 11.9212 12.9375 12.2869 12.9375 12.6562ZM11.25 12.6562C11.25 12.3579 11.1315 12.0717 10.9205 11.8608C10.7095 11.6498 10.4234 11.5312 10.125 11.5312H9.84375V13.7812H10.125C10.4234 13.7812 10.7095 13.6627 10.9205 13.4517C11.1315 13.2408 11.25 12.9546 11.25 12.6562ZM15.4688 6.1875V15.75C15.4688 15.9738 15.3799 16.1884 15.2216 16.3466C15.0634 16.5049 14.8488 16.5938 14.625 16.5938C14.4012 16.5938 14.1866 16.5049 14.0284 16.3466C13.8701 16.1884 13.7812 15.9738 13.7812 15.75V7.3125H10.4062C10.1825 7.3125 9.96786 7.22361 9.80963 7.06537C9.65139 6.90714 9.5625 6.69253 9.5625 6.46875V3.09375H4.21875V7.59375C4.21875 7.81753 4.12986 8.03214 3.97162 8.19037C3.81339 8.34861 3.59878 8.4375 3.375 8.4375C3.15122 8.4375 2.93661 8.34861 2.77838 8.19037C2.62014 8.03214 2.53125 7.81753 2.53125 7.59375V2.8125C2.53125 2.43954 2.67941 2.08185 2.94313 1.81813C3.20685 1.55441 3.56454 1.40625 3.9375 1.40625H10.6875C10.7984 1.40626 10.9082 1.42812 11.0106 1.47058C11.113 1.51305 11.2061 1.57529 11.2845 1.65375L15.222 5.59125C15.38 5.74945 15.4687 5.9639 15.4688 6.1875ZM11.25 5.625H12.8672L11.25 4.00781V5.625Z" fill="currentColor"/>
</svg>
