<svg width="18" height="18" viewBox="0 0 18 18" fill="none" xmlns="http://www.w3.org/2000/svg">
<path d="M15.222 5.59125L11.2845 1.65375C11.2061 1.57529 11.113 1.51305 11.0106 1.47058C10.9082 1.42812 10.7984 1.40626 10.6875 1.40625H3.9375C3.56454 1.40625 3.20685 1.55441 2.94313 1.81813C2.67941 2.08185 2.53125 2.43954 2.53125 2.8125V7.59375C2.53125 7.81753 2.62014 8.03214 2.77838 8.19037C2.93661 8.34861 3.15122 8.4375 3.375 8.4375C3.59878 8.4375 3.81339 8.34861 3.97162 8.19037C4.12986 8.03214 4.21875 7.81753 4.21875 7.59375V3.09375H9.5625V6.46875C9.5625 6.69253 9.6514 6.90714 9.80963 7.06537C9.96786 7.22361 10.1825 7.3125 10.4062 7.3125H13.7812V14.9062H12.0938C11.87 14.9062 11.6554 14.9951 11.4971 15.1534C11.3389 15.3116 11.25 15.5262 11.25 15.75C11.25 15.9738 11.3389 16.1884 11.4971 16.3466C11.6554 16.5049 11.87 16.5938 12.0938 16.5938H14.0625C14.4355 16.5938 14.7931 16.4456 15.0569 16.1819C15.3206 15.9181 15.4688 15.5605 15.4688 15.1875V6.1875C15.4687 5.9639 15.38 5.74945 15.222 5.59125ZM11.25 4.00781L12.8672 5.625H11.25V4.00781ZM4.5 9.84375H3.375C3.15122 9.84375 2.93661 9.93264 2.77838 10.0909C2.62014 10.2491 2.53125 10.4637 2.53125 10.6875V14.625C2.53125 14.8488 2.62014 15.0634 2.77838 15.2216C2.93661 15.3799 3.15122 15.4688 3.375 15.4688C3.59878 15.4688 3.81339 15.3799 3.97162 15.2216C4.12986 15.0634 4.21875 14.8488 4.21875 14.625V14.3438H4.5C5.09674 14.3438 5.66903 14.1067 6.09099 13.6847C6.51295 13.2628 6.75 12.6905 6.75 12.0938C6.75 11.497 6.51295 10.9247 6.09099 10.5028C5.66903 10.0808 5.09674 9.84375 4.5 9.84375ZM4.5 12.6562H4.21875V11.5312H4.5C4.64918 11.5312 4.79226 11.5905 4.89775 11.696C5.00324 11.8015 5.0625 11.9446 5.0625 12.0938C5.0625 12.2429 5.00324 12.386 4.89775 12.4915C4.79226 12.597 4.64918 12.6562 4.5 12.6562ZM10.125 13.1794V14.625C10.125 14.8488 10.0361 15.0634 9.87787 15.2216C9.71964 15.3799 9.50503 15.4688 9.28125 15.4688C9.05747 15.4688 8.84286 15.3799 8.68463 15.2216C8.52639 15.0634 8.4375 14.8488 8.4375 14.625V13.1794L7.15922 11.1347C7.04062 10.9449 7.00229 10.7157 7.05266 10.4976C7.10303 10.2795 7.23798 10.0903 7.42781 9.97172C7.61765 9.85312 7.84683 9.81479 8.06492 9.86516C8.28302 9.91553 8.47218 10.0505 8.59078 10.2403L9.28125 11.3456L9.97172 10.2403C10.0903 10.0505 10.2795 9.91553 10.4976 9.86516C10.7157 9.81479 10.9449 9.85312 11.1347 9.97172C11.3245 10.0903 11.4595 10.2795 11.5098 10.4976C11.5602 10.7157 11.5219 10.9449 11.4033 11.1347L10.125 13.1794Z" fill="currentColor"/>
</svg>
