<svg width="18" height="18" viewBox="0 0 18 18" fill="none"
  xmlns="http://www.w3.org/2000/svg">
  <path d="M13.2188 9.84375H12.0938C11.87 9.84375 11.6554 9.93264 11.4971 10.0909C11.3389 10.2491 11.25 10.4637 11.25 10.6875V14.625C11.25 14.8488 11.3389 15.0634 11.4971 15.2216C11.6554 15.3799 11.87 15.4688 12.0938 15.4688C12.3175 15.4688 12.5321 15.3799 12.6904 15.2216C12.8486 15.0634 12.9375 14.8488 12.9375 14.625V14.3438H13.2188C13.8155 14.3438 14.3878 14.1067 14.8097 13.6847C15.2317 13.2628 15.4688 12.6905 15.4688 12.0938C15.4688 11.497 15.2317 10.9247 14.8097 10.5028C14.3878 10.0808 13.8155 9.84375 13.2188 9.84375ZM13.2188 12.6562H12.9375V11.5312H13.2188C13.3679 11.5312 13.511 11.5905 13.6165 11.696C13.722 11.8015 13.7812 11.9446 13.7812 12.0938C13.7812 12.2429 13.722 12.386 13.6165 12.4915C13.511 12.597 13.3679 12.6562 13.2188 12.6562ZM9.84375 10.6875V14.625C9.84375 14.8488 9.75485 15.0634 9.59662 15.2216C9.43839 15.3799 9.22378 15.4688 9 15.4688C8.77622 15.4688 8.56161 15.3799 8.40338 15.2216C8.24514 15.0634 8.15625 14.8488 8.15625 14.625V10.6875C8.15625 10.4637 8.24514 10.2491 8.40338 10.0909C8.56161 9.93264 8.77622 9.84375 9 9.84375C9.22378 9.84375 9.43839 9.93264 9.59662 10.0909C9.75485 10.2491 9.84375 10.4637 9.84375 10.6875ZM6.75 14.625C6.75 14.8488 6.66111 15.0634 6.50287 15.2216C6.34464 15.3799 6.13003 15.4688 5.90625 15.4688H3.65625C3.50849 15.4687 3.36333 15.4299 3.23528 15.3562C3.10723 15.2825 3.00079 15.1764 2.92661 15.0486C2.85243 14.9208 2.81311 14.7758 2.81258 14.628C2.81205 14.4803 2.85033 14.335 2.92359 14.2066L4.45219 11.5312H3.65625C3.43247 11.5312 3.21786 11.4424 3.05963 11.2841C2.90139 11.1259 2.8125 10.9113 2.8125 10.6875C2.8125 10.4637 2.90139 10.2491 3.05963 10.0909C3.21786 9.93264 3.43247 9.84375 3.65625 9.84375H5.90625C6.05452 9.84341 6.20027 9.88214 6.32881 9.95606C6.45735 10.03 6.56414 10.1365 6.63842 10.2648C6.71271 10.3931 6.75186 10.5387 6.75195 10.687C6.75203 10.8353 6.71304 10.981 6.63891 11.1094L5.11031 13.7812H5.90625C6.13003 13.7812 6.34464 13.8701 6.50287 14.0284C6.66111 14.1866 6.75 14.4012 6.75 14.625ZM15.222 5.59125L11.2845 1.65375C11.2061 1.57529 11.113 1.51305 11.0106 1.47058C10.9082 1.42812 10.7984 1.40626 10.6875 1.40625H3.9375C3.56454 1.40625 3.20685 1.55441 2.94313 1.81813C2.67941 2.08185 2.53125 2.43954 2.53125 2.8125V7.59375C2.53125 7.81753 2.62014 8.03214 2.77838 8.19037C2.93661 8.34861 3.15122 8.4375 3.375 8.4375C3.59878 8.4375 3.81339 8.34861 3.97162 8.19037C4.12986 8.03214 4.21875 7.81753 4.21875 7.59375V3.09375H9.5625V6.46875C9.5625 6.69253 9.6514 6.90714 9.80963 7.06537C9.96786 7.22361 10.1825 7.3125 10.4062 7.3125H13.7812V7.59375C13.7812 7.81753 13.8701 8.03214 14.0284 8.19037C14.1866 8.34861 14.4012 8.4375 14.625 8.4375C14.8488 8.4375 15.0634 8.34861 15.2216 8.19037C15.3799 8.03214 15.4688 7.81753 15.4688 7.59375V6.1875C15.4687 5.9639 15.38 5.74945 15.222 5.59125ZM11.25 5.625V4.00781L12.8672 5.625H11.25Z" fill="currentColor"/>
</svg>
